<?xml version="1.0" encoding="UTF-8" standalone="no"?>
<!-- Created with Inkscape (http://www.inkscape.org/) -->

<svg
   width="124.63327mm"
   height="102.57487mm"
   viewBox="0 0 124.63327 102.57487"
   version="1.1"
   id="svg1"
   xml:space="preserve"
   inkscape:version="1.3.2 (091e20e, 2023-11-25, custom)"
   sodipodi:docname="pop-tracker.svg"
   xmlns:inkscape="http://www.inkscape.org/namespaces/inkscape"
   xmlns:sodipodi="http://sodipodi.sourceforge.net/DTD/sodipodi-0.dtd"
   xmlns="http://www.w3.org/2000/svg"
   xmlns:svg="http://www.w3.org/2000/svg"><sodipodi:namedview
     id="namedview1"
     pagecolor="#ffffff"
     bordercolor="#000000"
     borderopacity="0.25"
     inkscape:showpageshadow="2"
     inkscape:pageopacity="0.0"
     inkscape:pagecheckerboard="0"
     inkscape:deskcolor="#d1d1d1"
     inkscape:document-units="mm"
     inkscape:zoom="1.0242632"
     inkscape:cx="238.70817"
     inkscape:cy="153.76907"
     inkscape:window-width="1920"
     inkscape:window-height="1009"
     inkscape:window-x="1912"
     inkscape:window-y="-8"
     inkscape:window-maximized="1"
     inkscape:current-layer="layer1" /><defs
     id="defs1"><inkscape:path-effect
       effect="spiro"
       id="path-effect83"
       is_visible="true"
       lpeversion="1" /><inkscape:path-effect
       effect="spiro"
       id="path-effect82"
       is_visible="true"
       lpeversion="1" /><inkscape:path-effect
       effect="spiro"
       id="path-effect74"
       is_visible="true"
       lpeversion="1" /><inkscape:path-effect
       effect="spiro"
       id="path-effect73"
       is_visible="true"
       lpeversion="1" /><inkscape:path-effect
       effect="spiro"
       id="path-effect72"
       is_visible="true"
       lpeversion="1" /><inkscape:path-effect
       effect="spiro"
       id="path-effect71"
       is_visible="true"
       lpeversion="1" /><inkscape:path-effect
       effect="spiro"
       id="path-effect70"
       is_visible="true"
       lpeversion="1" /><linearGradient
       id="swatch68"><stop
         style="stop-color:#6a626f;stop-opacity:1;"
         offset="0"
         id="stop68" /><stop
         style="stop-color:#b4a6bd;stop-opacity:1"
         offset="1"
         id="stop69" /></linearGradient><linearGradient
       id="swatch62"
       inkscape:swatch="solid"><stop
         style="stop-color:#b3a7b9;stop-opacity:1;"
         offset="0"
         id="stop63" /></linearGradient><inkscape:path-effect
       effect="spiro"
       id="path-effect2"
       is_visible="true"
       lpeversion="1" /><inkscape:path-effect
       effect="spiro"
       id="path-effect1"
       is_visible="true"
       lpeversion="1" /><inkscape:path-effect
       effect="spiro"
       id="path-effect1-4"
       is_visible="true"
       lpeversion="1" /><inkscape:path-effect
       effect="spiro"
       id="path-effect82-9"
       is_visible="true"
       lpeversion="1" /><inkscape:path-effect
       effect="spiro"
       id="path-effect82-9-1"
       is_visible="true"
       lpeversion="1" /></defs><g
     inkscape:label="Warstwa 1"
     inkscape:groupmode="layer"
     id="layer1"
     transform="translate(-9.8396238,-44.103462)"><path
       style="fill:#b3a7bb;fill-opacity:1;fill-rule:evenodd;stroke:#000000;stroke-width:6;stroke-linecap:square;stroke-linejoin:miter;stroke-dasharray:none;stroke-opacity:1"
       d="m 29.042436,64.47786 13.516605,46.76014 11.142064,0.91329 -8.219556,-28.67712 c 0.426037,0.01442 0.852562,0.01442 1.278599,0 3.453761,-0.116895 6.871253,-1.204807 9.749625,-3.117162 2.878373,-1.912354 5.207642,-4.644521 6.628393,-7.794695 1.42075,-3.150174 1.92668,-6.708559 1.427066,-10.127991 -0.499614,-3.419432 -2.004756,-6.687592 -4.28848,-9.281187 -2.35223,-2.671395 -5.521718,-4.613215 -8.97002,-5.495573 -3.448301,-0.882359 -7.160932,-0.701551 -10.507175,0.511707 -3.346243,1.213258 -6.312044,3.45387 -8.39356,6.341192 -2.081516,2.887322 -3.270005,6.409227 -3.363561,9.967399 z"
       id="path1"
       inkscape:original-d="m 29.042436,64.47786 13.516605,46.76014 11.142064,0.91329 -8.219556,-28.67712 c 0,0 0.852398,0.06088 1.278599,0 0.426199,-0.06089 9.011068,-20.274909 13.516604,-30.321035 4.505534,-10.046124 -20.822877,7.549816 -31.234316,11.324725 z"
       inkscape:path-effect="#path-effect1" /><path
       style="fill:#b3a7b9;fill-opacity:1;fill-rule:evenodd;stroke:#000000;stroke-width:6.20808;stroke-linecap:square;stroke-linejoin:miter;stroke-dasharray:none;stroke-opacity:1"
       d="m 29.042436,64.47786 13.516605,46.76014 11.142064,0.91329 -8.219556,-28.67712 c 0.426037,0.01442 0.852562,0.01442 1.278599,0 3.453761,-0.116895 6.871253,-1.204807 9.749625,-3.117162 2.878373,-1.912354 5.207642,-4.644521 6.628393,-7.794695 1.42075,-3.150174 1.92668,-6.708559 1.427066,-10.127991 -0.499614,-3.419432 -2.004756,-6.687592 -4.28848,-9.281187 -2.35223,-2.671395 -5.521718,-4.613215 -8.97002,-5.495573 -3.448301,-0.882359 -7.160932,-0.701551 -10.507175,0.511707 -3.346243,1.213258 -6.312044,3.45387 -8.39356,6.341192 -2.081516,2.887322 -3.270005,6.409227 -3.363561,9.967399 z"
       id="path1-7"
       transform="matrix(0.92493952,0.28967649,-0.28876031,0.91945682,81.501805,-3.1451129)"
       inkscape:original-d="m 29.042436,64.47786 13.516605,46.76014 11.142064,0.91329 -8.219556,-28.67712 c 0,0 0.852398,0.06088 1.278599,0 0.426199,-0.06089 9.011068,-20.274909 13.516604,-30.321035 4.505534,-10.046124 -20.822877,7.549816 -31.234316,11.324725 z"
       inkscape:path-effect="#path-effect1-4" /><path
       style="fill:#b3a7b9;fill-opacity:1;fill-rule:evenodd;stroke:#000000;stroke-width:9.32674;stroke-linecap:round;stroke-linejoin:round;stroke-dasharray:none;stroke-opacity:1"
       d="m 75.254611,43.107011 c 0.603986,-0.100134 1.215105,-0.152055 1.82657,-0.182657 4.614474,-0.230938 9.26388,0.766061 13.455918,2.708616 4.192039,1.942554 7.92962,4.816307 11.020091,8.250793 5.13272,5.704072 8.48279,13.012342 9.33694,20.638069 0.85415,7.625727 -0.81135,15.530481 -4.77052,22.103627 -2.2682,3.765741 -5.29852,7.115661 -9.018623,9.457961 -3.720106,2.34229 -8.149789,3.6387 -12.534878,3.32802 -3.295249,-0.23347 -6.496779,-1.3605 -9.334324,-3.0521 -2.837545,-1.6916 -5.321357,-3.93686 -7.470102,-6.446057 -6.400581,-7.47428 -9.80301,-17.376286 -9.680813,-27.215867 0.08718,-7.019586 1.931098,-14.035061 5.479706,-20.092252 1.311323,-2.238324 2.864863,-4.360377 4.814068,-6.072179 1.949205,-1.711801 4.31674,-3.001683 6.875967,-3.425974 z"
       id="path2"
       transform="matrix(0.61298749,0.16601977,-0.17035563,0.62899661,34.483438,29.833291)"
       inkscape:original-d="m 75.254611,43.107011 c 3.653136,-3.166051 1.278599,0 1.82657,-0.182657 0.54797,-0.182658 16.195571,7.306273 24.476009,10.959409 8.28045,3.653136 3.04428,28.311808 4.56642,42.741696 1.52214,14.429891 -14.368998,8.463101 -21.553501,12.785981 -7.184501,4.32288 -11.202951,-6.08856 -16.804426,-9.498157 C 62.164205,96.50369 61.43358,81.6476 58.08487,72.697416 c -3.348709,-8.950185 3.531365,-13.394833 5.479706,-20.092252 1.948339,-6.697416 7.671586,-6.332101 11.690035,-9.498153 z"
       inkscape:path-effect="#path-effect2" /><circle
       style="fill:#f6e3ff;fill-opacity:1;fill-rule:evenodd;stroke:none;stroke-width:6.00001;stroke-linecap:square;stroke-linejoin:miter;stroke-dasharray:none;stroke-opacity:1"
       id="path69"
       cx="41.691418"
       cy="54.568726"
       r="1.9635608" /><circle
       style="fill:#f6e3ff;fill-opacity:1;fill-rule:evenodd;stroke:none;stroke-width:6.00001;stroke-linecap:square;stroke-linejoin:miter;stroke-dasharray:none;stroke-opacity:1"
       id="path69-2"
       cx="51.497059"
       cy="55.82843"
       r="1.9635608" /><circle
       style="fill:#f6e3ff;fill-opacity:1;fill-rule:evenodd;stroke:none;stroke-width:6.00001;stroke-linecap:square;stroke-linejoin:miter;stroke-dasharray:none;stroke-opacity:1"
       id="path69-9"
       cx="36.711254"
       cy="62.366467"
       r="1.9635608" /><circle
       style="fill:#f6e3ff;fill-opacity:1;fill-rule:evenodd;stroke:none;stroke-width:6.00001;stroke-linecap:square;stroke-linejoin:miter;stroke-dasharray:none;stroke-opacity:1"
       id="path69-9-5"
       cx="45.866951"
       cy="62.635071"
       r="1.9635608" /><circle
       style="fill:#f6e3ff;fill-opacity:1;fill-rule:evenodd;stroke:none;stroke-width:6.00001;stroke-linecap:square;stroke-linejoin:miter;stroke-dasharray:none;stroke-opacity:1"
       id="path69-9-56"
       cx="39.327549"
       cy="69.941338"
       r="1.9635608" /><path
       id="path69-9-7"
       style="fill:#f6e3ff;fill-opacity:1;fill-rule:evenodd;stroke:none;stroke-width:6.00001;stroke-linecap:square;stroke-linejoin:miter;stroke-dasharray:none;stroke-opacity:1"
       d="m 44.773969,91.955116 -1.062468,-3.663859 a 1.9635608,1.9635608 0 0 0 -1.003556,1.707389 1.9635608,1.9635608 0 0 0 1.963705,1.963705 1.9635608,1.9635608 0 0 0 0.102319,-0.0072 z" /><path
       id="path69-9-7-9"
       style="fill:#f6e3ff;fill-opacity:1;fill-rule:evenodd;stroke:none;stroke-width:6.00001;stroke-linecap:square;stroke-linejoin:miter;stroke-dasharray:none;stroke-opacity:1"
       d="m 96.262286,92.889373 0.170028,-3.81101 a 1.9635608,1.9635608 0 0 0 -1.498577,1.294824 1.9635608,1.9635608 0 0 0 1.229323,2.490189 1.9635608,1.9635608 0 0 0 0.09922,0.02603 z" /><path
       id="path70"
       style="fill:#f6e3ff;fill-opacity:1;fill-rule:evenodd;stroke:none;stroke-width:6.00001;stroke-linecap:square;stroke-linejoin:miter;stroke-dasharray:none;stroke-opacity:1"
       d="m 36.304494,75.246195 a 1.9635608,1.9635608 0 0 0 -0.960149,0.256315 l 1.062468,3.663859 a 1.9635608,1.9635608 0 0 0 1.860868,-1.95647 1.9635608,1.9635608 0 0 0 -1.963187,-1.963704 z" /><path
       id="path74"
       style="fill:#f6e3ff;fill-opacity:1;fill-rule:evenodd;stroke:none;stroke-width:6.00001;stroke-linecap:square;stroke-linejoin:miter;stroke-dasharray:none;stroke-opacity:1"
       d="m 48.138147,78.136833 a 1.9635608,1.9635608 0 0 0 -1.963704,1.963187 1.9635608,1.9635608 0 0 0 0.03876,0.365353 c 0.01659,2.2e-5 0.03302,2.9e-5 0.04961,0 1.291509,-0.0023 2.582707,-0.164384 3.834908,-0.480591 a 1.9635608,1.9635608 0 0 0 -1.95957,-1.847949 z" /><path
       id="path74-70"
       style="fill:#f6e3ff;fill-opacity:1;fill-rule:evenodd;stroke:none;stroke-width:6.00001;stroke-linecap:square;stroke-linejoin:miter;stroke-dasharray:none;stroke-opacity:1"
       d="m 82.47103,82.159482 a 1.9635608,1.9635608 0 0 0 2.535588,1.131826 1.9635608,1.9635608 0 0 0 0.327334,-0.166846 c -0.0059,-0.0155 -0.01178,-0.03084 -0.01774,-0.04633 -0.463988,-1.205286 -1.077083,-2.353144 -1.820165,-3.40947 a 1.9635608,1.9635608 0 0 0 -1.025019,2.490816 z" /><path
       id="path74-70-6"
       style="fill:#f6e3ff;fill-opacity:1;fill-rule:evenodd;stroke:none;stroke-width:6.00001;stroke-linecap:square;stroke-linejoin:miter;stroke-dasharray:none;stroke-opacity:1"
       d="m 64.95226,104.08682 a 1.9635608,1.9635608 0 0 0 -2.634759,-0.87651 1.9635608,1.9635608 0 0 0 -0.309304,0.19828 c 0.0074,0.0148 0.01476,0.0295 0.02222,0.0444 0.580473,1.15371 1.30367,2.23558 2.147205,3.21356 a 1.9635608,1.9635608 0 0 0 0.774642,-2.57968 z" /><path
       id="path74-7"
       style="fill:#f6e3ff;fill-opacity:1;fill-rule:evenodd;stroke:none;stroke-width:6.00001;stroke-linecap:square;stroke-linejoin:miter;stroke-dasharray:none;stroke-opacity:1"
       d="m 111.15408,81.316884 a 1.9635608,1.9635608 0 0 0 -1.27436,2.467038 1.9635608,1.9635608 0 0 0 0.14798,0.33629 c 0.0158,-0.005 0.0315,-0.01 0.0473,-0.01507 1.22975,-0.394614 2.41066,-0.941363 3.50758,-1.623098 a 1.9635608,1.9635608 0 0 0 -2.42842,-1.165168 z" /><path
       id="path74-7-4"
       style="fill:#f6e3ff;fill-opacity:1;fill-rule:evenodd;stroke:none;stroke-width:6.00001;stroke-linecap:square;stroke-linejoin:miter;stroke-dasharray:none;stroke-opacity:1"
       d="m 104.6931,58.208921 a 1.9635608,1.9635608 0 0 0 2.02119,-1.903952 1.9635608,1.9635608 0 0 0 -0.0279,-0.366346 c -0.0166,-5.3e-4 -0.033,-10e-4 -0.0496,-0.0015 -1.29101,-0.03609 -2.58646,0.08754 -3.84751,0.366392 a 1.9635608,1.9635608 0 0 0 1.90378,1.905377 z" /><circle
       style="fill:#f6e3ff;fill-opacity:1;fill-rule:evenodd;stroke:none;stroke-width:6.00001;stroke-linecap:square;stroke-linejoin:miter;stroke-dasharray:none;stroke-opacity:1"
       id="path69-9-6"
       cx="49.506634"
       cy="72.800697"
       r="1.9635608" /><circle
       style="fill:#f6e3ff;fill-opacity:1;fill-rule:evenodd;stroke:none;stroke-width:6.00001;stroke-linecap:square;stroke-linejoin:miter;stroke-dasharray:none;stroke-opacity:1"
       id="path69-9-6-9"
       cx="69.853584"
       cy="77.009865"
       r="1.9635608" /><circle
       style="fill:#f6e3ff;fill-opacity:1;fill-rule:evenodd;stroke:none;stroke-width:6.00001;stroke-linecap:square;stroke-linejoin:miter;stroke-dasharray:none;stroke-opacity:1"
       id="path69-9-6-0"
       cx="65.90744"
       cy="99.553619"
       r="1.9635608" /><circle
       style="fill:#f6e3ff;fill-opacity:1;fill-rule:evenodd;stroke:none;stroke-width:6.00001;stroke-linecap:square;stroke-linejoin:miter;stroke-dasharray:none;stroke-opacity:1"
       id="path69-9-6-7"
       cx="82.402046"
       cy="89.145782"
       r="1.9635608" /><circle
       style="fill:#f6e3ff;fill-opacity:1;fill-rule:evenodd;stroke:none;stroke-width:6.00001;stroke-linecap:square;stroke-linejoin:miter;stroke-dasharray:none;stroke-opacity:1"
       id="path69-9-6-1"
       cx="62.519119"
       cy="92.838531"
       r="1.9635608" /><circle
       style="fill:#f6e3ff;fill-opacity:1;fill-rule:evenodd;stroke:none;stroke-width:6.00001;stroke-linecap:square;stroke-linejoin:miter;stroke-dasharray:none;stroke-opacity:1"
       id="path69-9-6-6"
       cx="66.017799"
       cy="84.528557"
       r="1.9635608" /><circle
       style="fill:#f6e3ff;fill-opacity:1;fill-rule:evenodd;stroke:none;stroke-width:6.00001;stroke-linecap:square;stroke-linejoin:miter;stroke-dasharray:none;stroke-opacity:1"
       id="path69-9-6-8"
       cx="77.083961"
       cy="79.211815"
       r="1.9635608" /><circle
       style="fill:#f6e3ff;fill-opacity:1;fill-rule:evenodd;stroke:none;stroke-width:6.00001;stroke-linecap:square;stroke-linejoin:miter;stroke-dasharray:none;stroke-opacity:1"
       id="path69-9-6-88"
       cx="79.634438"
       cy="103.45589"
       r="1.9635608" /><circle
       style="fill:#f6e3ff;fill-opacity:1;fill-rule:evenodd;stroke:none;stroke-width:6.00001;stroke-linecap:square;stroke-linejoin:miter;stroke-dasharray:none;stroke-opacity:1"
       id="path69-9-6-2"
       cx="71.601578"
       cy="105.13226"
       r="1.9635608" /><circle
       style="fill:#f6e3ff;fill-opacity:1;fill-rule:evenodd;stroke:none;stroke-width:6.00001;stroke-linecap:square;stroke-linejoin:miter;stroke-dasharray:none;stroke-opacity:1"
       id="path69-9-6-03"
       cx="72.217926"
       cy="93.508041"
       r="1.9635608" /><circle
       style="fill:#f6e3ff;fill-opacity:1;fill-rule:evenodd;stroke:none;stroke-width:6.00001;stroke-linecap:square;stroke-linejoin:miter;stroke-dasharray:none;stroke-opacity:1"
       id="path69-9-6-90"
       cx="78.759201"
       cy="96.271851"
       r="1.9635608" /><circle
       style="fill:#f6e3ff;fill-opacity:1;fill-rule:evenodd;stroke:none;stroke-width:6.00001;stroke-linecap:square;stroke-linejoin:miter;stroke-dasharray:none;stroke-opacity:1"
       id="path69-9-6-90-5"
       cx="99.401413"
       cy="63.072678"
       r="1.9635608" /><circle
       style="fill:#f6e3ff;fill-opacity:1;fill-rule:evenodd;stroke:none;stroke-width:6.00001;stroke-linecap:square;stroke-linejoin:miter;stroke-dasharray:none;stroke-opacity:1"
       id="path69-9-6-90-7"
       cx="95.529587"
       cy="74.753975"
       r="1.9635608" /><circle
       style="fill:#f6e3ff;fill-opacity:1;fill-rule:evenodd;stroke:none;stroke-width:6.00001;stroke-linecap:square;stroke-linejoin:miter;stroke-dasharray:none;stroke-opacity:1"
       id="path69-9-6-90-1"
       cx="102.8401"
       cy="80.884598"
       r="1.9635608" /><circle
       style="fill:#f6e3ff;fill-opacity:1;fill-rule:evenodd;stroke:none;stroke-width:6.00001;stroke-linecap:square;stroke-linejoin:miter;stroke-dasharray:none;stroke-opacity:1"
       id="path69-9-6-90-1-5"
       cx="102.60328"
       cy="70.655823"
       r="1.9635608" /><circle
       style="fill:#f6e3ff;fill-opacity:1;fill-rule:evenodd;stroke:none;stroke-width:6.00001;stroke-linecap:square;stroke-linejoin:miter;stroke-dasharray:none;stroke-opacity:1"
       id="path69-9-6-90-1-5-3"
       cx="116.48249"
       cy="72.27961"
       r="1.9635608" /><circle
       style="fill:#f6e3ff;fill-opacity:1;fill-rule:evenodd;stroke:none;stroke-width:6.00001;stroke-linecap:square;stroke-linejoin:miter;stroke-dasharray:none;stroke-opacity:1"
       id="path69-9-6-90-73"
       cx="110.9934"
       cy="60.683151"
       r="1.9635608" /><circle
       style="fill:#f6e3ff;fill-opacity:1;fill-rule:evenodd;stroke:none;stroke-width:6.00001;stroke-linecap:square;stroke-linejoin:miter;stroke-dasharray:none;stroke-opacity:1"
       id="path69-9-6-90-73-1"
       cx="109.54555"
       cy="68.222221"
       r="1.9635608" /><circle
       style="fill:#f6e3ff;fill-opacity:1;fill-rule:evenodd;stroke:none;stroke-width:6.00001;stroke-linecap:square;stroke-linejoin:miter;stroke-dasharray:none;stroke-opacity:1"
       id="path69-9-6-90-73-8"
       cx="108.6927"
       cy="75.930046"
       r="1.9635608" /><circle
       style="fill:#f6e3ff;fill-opacity:1;fill-rule:evenodd;stroke:none;stroke-width:6.00001;stroke-linecap:square;stroke-linejoin:miter;stroke-dasharray:none;stroke-opacity:1"
       id="path69-9-6-3"
       cx="75.659981"
       cy="86.383102"
       r="1.9635608" /><circle
       style="fill:#f6e3ff;fill-opacity:1;fill-rule:evenodd;stroke:none;stroke-width:6.00001;stroke-linecap:square;stroke-linejoin:miter;stroke-dasharray:none;stroke-opacity:1"
       id="path69-9-50"
       cx="57.14732"
       cy="68.30278"
       r="1.9635608" /><path
       id="path69-9-50-0"
       style="fill:#f6e3ff;fill-opacity:1;fill-rule:evenodd;stroke:none;stroke-width:6.00001;stroke-linecap:square;stroke-linejoin:miter;stroke-dasharray:none;stroke-opacity:1"
       d="m 48.040946,103.34608 -1.005107,-3.47627 a 1.9635608,1.9635608 0 0 0 -0.737423,1.52859 1.9635608,1.9635608 0 0 0 1.74253,1.94768 z" /><path
       id="path69-9-50-0-7"
       style="fill:#f6e3ff;fill-opacity:1;fill-rule:evenodd;stroke:none;stroke-width:6.00001;stroke-linecap:square;stroke-linejoin:miter;stroke-dasharray:none;stroke-opacity:1"
       d="m 95.970778,107.07959 0.182884,-3.61403 a 1.9635608,1.9635608 0 0 0 -1.195394,1.20474 1.9635608,1.9635608 0 0 0 1.01251,2.40929 z" /><path
       id="path71"
       style="fill:#f6e3ff;fill-opacity:1;fill-rule:evenodd;stroke:none;stroke-width:6.00001;stroke-linecap:square;stroke-linejoin:miter;stroke-dasharray:none;stroke-opacity:1"
       d="m 39.009411,83.486986 a 1.9635608,1.9635608 0 0 0 -1.226282,0.434599 l 1.005107,3.476273 a 1.9635608,1.9635608 0 0 0 0.221175,0.01602 1.9635608,1.9635608 0 0 0 1.963188,-1.963705 1.9635608,1.9635608 0 0 0 -1.963188,-1.963187 z" /><path
       id="path71-5"
       style="fill:#f6e3ff;fill-opacity:1;fill-rule:evenodd;stroke:none;stroke-width:6.00001;stroke-linecap:square;stroke-linejoin:miter;stroke-dasharray:none;stroke-opacity:1"
       d="m 93.749773,80.950035 a 1.9635608,1.9635608 0 0 0 -1.298371,0.08293 l 0.01682,3.618623 a 1.9635608,1.9635608 0 0 0 0.208378,0.07585 1.9635608,1.9635608 0 0 0 2.42511,-1.352437 1.9635608,1.9635608 0 0 0 -1.351939,-2.424968 z" /><path
       id="path73"
       style="fill:#f6e3ff;fill-opacity:1;fill-rule:evenodd;stroke:none;stroke-width:6.00001;stroke-linecap:square;stroke-linejoin:miter;stroke-dasharray:none;stroke-opacity:1"
       d="m 47.120121,106.41779 a 1.9635608,1.9635608 0 0 0 -1.963704,1.96319 1.9635608,1.9635608 0 0 0 0.0031,0.0413 l 3.881934,0.34158 a 1.9635608,1.9635608 0 0 0 0.04237,-0.38292 1.9635608,1.9635608 0 0 0 -1.963705,-1.96319 z" /><path
       id="path73-6"
       style="fill:#f6e3ff;fill-opacity:1;fill-rule:evenodd;stroke:none;stroke-width:6.00001;stroke-linecap:square;stroke-linejoin:miter;stroke-dasharray:none;stroke-opacity:1"
       d="m 94.33778,108.1298 a 1.9635608,1.9635608 0 0 0 -2.441659,1.32233 1.9635608,1.9635608 0 0 0 -0.0088,0.0405 l 3.623714,1.43345 a 1.9635608,1.9635608 0 0 0 0.149715,-0.35498 1.9635608,1.9635608 0 0 0 -1.322967,-2.44131 z" /><path
       id="path72"
       style="fill:#f6e3ff;fill-opacity:1;fill-rule:evenodd;stroke:none;stroke-width:6.00001;stroke-linecap:square;stroke-linejoin:miter;stroke-dasharray:none;stroke-opacity:1"
       d="m 42.325065,94.559603 a 1.9635608,1.9635608 0 0 0 -1.330151,0.523999 l 0.980818,3.36827 a 1.9635608,1.9635608 0 0 0 0.349333,0.03514 1.9635608,1.9635608 0 0 0 1.963705,-1.963705 1.9635608,1.9635608 0 0 0 -1.963705,-1.963704 z" /><path
       id="path72-2"
       style="fill:#f6e3ff;fill-opacity:1;fill-rule:evenodd;stroke:none;stroke-width:6.00001;stroke-linecap:square;stroke-linejoin:miter;stroke-dasharray:none;stroke-opacity:1"
       d="m 93.411934,98.991679 a 1.9635608,1.9635608 0 0 0 -1.423773,0.129407 l -0.0045,3.508164 a 1.9635608,1.9635608 0 0 0 0.325421,0.13178 1.9635608,1.9635608 0 0 0 2.436109,-1.33328 1.9635608,1.9635608 0 0 0 -1.333285,-2.436109 z" /><circle
       style="fill:#f6e3ff;fill-opacity:1;fill-rule:evenodd;stroke:none;stroke-width:6.00001;stroke-linecap:square;stroke-linejoin:miter;stroke-dasharray:none;stroke-opacity:1"
       id="path69-9-80"
       cx="58.801964"
       cy="60.311565"
       r="1.9635608" /><path
       style="fill:#6c626b;fill-opacity:1;fill-rule:evenodd;stroke:#dac9e0;stroke-width:1.309;stroke-linecap:square;stroke-linejoin:miter;stroke-dasharray:none;stroke-opacity:1"
       d="m 20.452733,101.07517 3.368579,28.27337 h 5.293481 l -3.368579,-28.51095 12.030644,-1.425544 -1.924902,-4.989416 -25.26435,3.80146 0.962453,6.17736 z"
       id="path75" /><path
       style="fill:#6c626b;fill-opacity:1;fill-rule:evenodd;stroke:#dac9e0;stroke-width:1.45678;stroke-linecap:square;stroke-linejoin:miter;stroke-dasharray:none;stroke-opacity:1"
       d="m 32.506974,101.31774 -2.128734,38.31714 2.128734,0.2661 1.330455,-21.02122 6.1201,22.08557 h 9.313198 L 35.70007,118.87976 50.601182,107.17175 Z"
       id="path76" /><path
       style="fill:#6c626b;fill-opacity:1;fill-rule:evenodd;stroke:#dac9e0;stroke-width:1.41623;stroke-linecap:square;stroke-linejoin:miter;stroke-dasharray:none;stroke-opacity:1"
       d="m 52.933626,97.214831 -8.277914,35.698489 4.138955,-0.51736 5.432381,-15.2624 5.432382,-0.77605 7.501855,15.2624 3.880273,-0.25869 z"
       id="path77" /><path
       style="fill:#6c626b;fill-opacity:1;fill-rule:evenodd;stroke:#dac9e0;stroke-width:1.65701;stroke-linecap:square;stroke-linejoin:miter;stroke-dasharray:none;stroke-opacity:1"
       d="m 82.604318,105.87556 -16.343852,11.50123 -1.815988,6.96127 0.907998,11.19856 3.631963,6.65861 16.343835,-4.84263 -1.815982,-2.72397 -12.409202,2.4213 -1.815999,-15.13319 15.73853,-11.50123 z"
       id="path78" /><path
       style="fill:#6c626b;fill-opacity:1;fill-rule:evenodd;stroke:#dac9e0;stroke-width:1.60318;stroke-linecap:square;stroke-linejoin:miter;stroke-dasharray:none;stroke-opacity:1"
       d="m 85.197835,102.19546 0.292821,37.18966 4.099655,-0.58566 c 0,0 -0.585658,-21.0839 0,-19.91257 0.585658,1.17132 8.492133,19.61973 8.492133,19.61973 l 4.392466,-1.75699 -11.127609,-21.9624 12.591769,-13.47026 -1.46416,-3.221156 -11.713267,13.763096 V 99.559964 l -6.735141,-0.29282 z"
       id="path79" /><path
       style="fill:#6c626b;fill-opacity:1;fill-rule:evenodd;stroke:#dac9e0;stroke-width:1.50956;stroke-linecap:square;stroke-linejoin:miter;stroke-dasharray:none;stroke-opacity:1"
       d="m 101.62994,105.0354 -0.27574,40.80834 16.54392,-1.65439 0.27574,-4.41172 -12.95941,1.37867 0.55146,-10.20209 7.44476,-1.37866 -0.27572,-4.96317 -7.16904,1.65439 0.55146,-9.37488 11.30502,1.37865 0.82719,-6.61757 z"
       id="path80" /><path
       style="fill:#6c626b;fill-opacity:1;fill-rule:evenodd;stroke:#dac9e0;stroke-width:1.42636;stroke-linecap:square;stroke-linejoin:miter;stroke-dasharray:none;stroke-opacity:1"
       d="m 114.61882,95.544558 1.5632,35.693252 7.81603,-0.78161 -2.60533,-16.15315 8.85817,16.15315 3.12641,-0.7816 -11.72406,-20.06117 9.90032,-15.632062 -5.9923,-4.95016 z"
       id="path81" /><path
       style="fill:#ffffff;fill-opacity:1;fill-rule:evenodd;stroke:#000000;stroke-width:12.2955;stroke-linecap:square;stroke-linejoin:miter;stroke-dasharray:none;stroke-opacity:1"
       d="m 37.627306,62.377306 3.744465,13.881917 c 1.40612,0.306745 2.858727,0.399465 4.292436,0.273987 2.226079,-0.194826 4.403826,-0.92089 6.30166,-2.100554 1.994154,-1.239535 3.702882,-3.022281 4.56642,-5.205719 0.605525,-1.531059 0.779695,-3.219629 0.579477,-4.853861 -0.200219,-1.634232 -0.768185,-3.214224 -1.584089,-4.644294 -0.897873,-1.573741 -2.135099,-3.00346 -3.744465,-3.835794 -1.80107,-0.93148 -3.933198,-1.045105 -5.936348,-0.730626 -2.505228,0.393301 -4.986393,1.494339 -6.575645,3.470479 -0.864256,1.07465 -1.437732,2.380903 -1.643911,3.744465 z"
       id="path82-9"
       inkscape:path-effect="#path-effect82-9"
       inkscape:original-d="m 37.627306,62.377306 3.744465,13.881917 c 0,0 2.922508,0.182658 4.292436,0.273987 1.369925,0.09133 4.140221,-1.430811 6.30166,-2.100554 2.16144,-0.669742 3.04428,-3.409595 4.56642,-5.205719 1.52214,-1.796126 -0.639299,-6.392989 -1.004612,-9.498155 -0.365313,-3.105166 -2.526752,-2.465866 -3.744465,-3.835794 -1.217713,-1.369925 -3.988007,-0.517528 -5.936348,-0.730626 -1.948339,-0.213101 -4.353319,2.313652 -6.575645,3.470479 -2.222325,1.156827 -1.095941,2.496309 -1.643911,3.744465 z"
       transform="matrix(0.45700216,0.14939254,-0.14404274,0.47397537,94.429359,32.520694)" /><path
       style="fill:#ffffff;fill-opacity:1;fill-rule:evenodd;stroke:#000000;stroke-width:12.2955;stroke-linecap:square;stroke-linejoin:miter;stroke-dasharray:none;stroke-opacity:1"
       d="m 37.627306,62.377306 3.744465,13.881917 c 1.40612,0.306745 2.858727,0.399465 4.292436,0.273987 2.226079,-0.194826 4.403826,-0.92089 6.30166,-2.100554 1.994154,-1.239535 3.702882,-3.022281 4.56642,-5.205719 0.605525,-1.531059 0.779695,-3.219629 0.579477,-4.853861 -0.200219,-1.634232 -0.768185,-3.214224 -1.584089,-4.644294 -0.897873,-1.573741 -2.135099,-3.00346 -3.744465,-3.835794 -1.80107,-0.93148 -3.933198,-1.045105 -5.936348,-0.730626 -2.505228,0.393301 -4.986393,1.494339 -6.575645,3.470479 -0.864256,1.07465 -1.437732,2.380903 -1.643911,3.744465 z"
       id="path82-9-4"
       inkscape:path-effect="#path-effect82-9-1"
       inkscape:original-d="m 37.627306,62.377306 3.744465,13.881917 c 0,0 2.922508,0.182658 4.292436,0.273987 1.369925,0.09133 4.140221,-1.430811 6.30166,-2.100554 2.16144,-0.669742 3.04428,-3.409595 4.56642,-5.205719 1.52214,-1.796126 -0.639299,-6.392989 -1.004612,-9.498155 -0.365313,-3.105166 -2.526752,-2.465866 -3.744465,-3.835794 -1.217713,-1.369925 -3.988007,-0.517528 -5.936348,-0.730626 -1.948339,-0.213101 -4.353319,2.313652 -6.575645,3.470479 -2.222325,1.156827 -1.095941,2.496309 -1.643911,3.744465 z"
       transform="matrix(0.48065094,0.01199084,-0.0019961,0.49537559,24.102573,32.040223)" /><path
       style="fill:#ffffff;fill-opacity:1;fill-rule:evenodd;stroke:#000000;stroke-width:9.4555;stroke-linecap:square;stroke-linejoin:miter;stroke-dasharray:none;stroke-opacity:1"
       d="m 71.96679,78.816419 c -1.601905,0.708914 -3.006366,1.858018 -4.018452,3.287823 -0.854247,1.20682 -1.424826,2.59551 -1.826567,4.018449 -0.668199,2.366712 -0.883541,4.851804 -0.730628,7.306276 0.08139,1.306494 0.267884,2.614031 0.678812,3.856886 0.410928,1.242855 1.053926,2.422703 1.969712,3.358057 1.455038,1.48613 3.590136,2.2783 5.662361,2.10055 1.439083,-0.12344 2.825935,-0.69425 3.984344,-1.55697 1.158409,-0.86272 2.092131,-2.010126 2.773958,-3.283432 1.577767,-2.946469 1.78136,-6.45525 1.369928,-9.772139 -0.177521,-1.431142 -0.465049,-2.857234 -0.995576,-4.198213 -0.530526,-1.340979 -1.31302,-2.598478 -2.383576,-3.564704 -1.358513,-1.226121 -3.196954,-1.945983 -5.023062,-1.826567 -0.495706,0.03242 -0.987475,0.124622 -1.461254,0.273984 z"
       id="path83"
       inkscape:path-effect="#path-effect83"
       inkscape:original-d="m 71.96679,78.816419 c -0.608856,0.334872 -2.739853,2.252768 -4.018452,3.287823 -1.278596,1.035055 -1.156827,2.678967 -1.826567,4.018449 -0.669742,1.339485 -0.517527,4.87085 -0.730628,7.306276 -0.213101,2.435423 1.765684,4.809961 2.648524,7.214943 0.882841,2.40498 3.805351,1.43081 5.662361,2.10055 1.857013,0.66974 4.444651,-3.287819 6.758302,-4.840402 2.313655,-1.552583 0.913286,-6.514761 1.369928,-9.772139 0.456642,-3.257381 -2.222325,-5.144836 -3.379152,-7.762917 -1.156827,-2.618082 -3.348707,-1.217711 -5.023062,-1.826567 -1.674355,-0.608857 -1.035055,0.304427 -1.461254,0.273984 z"
       transform="matrix(0.63455142,0,0,0.63455142,26.15772,33.95605)" /></g></svg>
