<?xml version="1.0" encoding="UTF-8" standalone="no"?>
<svg
   id="a"
   width="865.76"
   height="682.89"
   viewBox="0 0 865.76 682.89"
   version="1.1"
   sodipodi:docname="Video-Games-and-Devices.svg"
   inkscape:version="1.3.2 (091e20e, 2023-11-25, custom)"
   xmlns:inkscape="http://www.inkscape.org/namespaces/inkscape"
   xmlns:sodipodi="http://sodipodi.sourceforge.net/DTD/sodipodi-0.dtd"
   xmlns="http://www.w3.org/2000/svg"
   xmlns:svg="http://www.w3.org/2000/svg">
  <defs
     id="defs90" />
  <sodipodi:namedview
     id="namedview90"
     pagecolor="#ffffff"
     bordercolor="#000000"
     borderopacity="0.25"
     inkscape:showpageshadow="2"
     inkscape:pageopacity="0.0"
     inkscape:pagecheckerboard="0"
     inkscape:deskcolor="#d1d1d1"
     inkscape:zoom="0.73507219"
     inkscape:cx="365.95045"
     inkscape:cy="323.09752"
     inkscape:window-width="1920"
     inkscape:window-height="1009"
     inkscape:window-x="1912"
     inkscape:window-y="-8"
     inkscape:window-maximized="1"
     inkscape:current-layer="a" />
  <g
     id="g2"
     transform="matrix(-1,0,0,1,865.76,0)">
    <path
       d="m 351.24,555.62 c -0.75,-3.31 -1.65,-6.6 -2.64,-9.85 -0.02,-0.05 -0.03,-0.1 -0.05,-0.15 -0.16,-0.5 -0.31,-1 -0.47,-1.5 -2.2,-6.9 -4.83,-13.59 -7.48,-19.91 -0.96,-2.28 -1.92,-4.52 -2.88,-6.7 -1.55,-3.55 -3.21,-7.38 -4.92,-11.43 -13.65,-32.33 -29.89,-78.8 -7.35,-113 25.39,-38.47 18.84,-43.38 18.84,-54.04 0,-2.24 -0.59,-5.03 -1.81,-8.17 -0.07,-0.17 -0.14,-0.34 -0.21,-0.52 -4.78,-11.66 -18.36,-27.78 -43.83,-37.99 -2.39,-0.96 -4.71,-2.11 -6.91,-3.44 -0.45,-0.27 -0.89,-0.54 -1.33,-0.83 -2.51,-1.62 -4.89,-3.43 -7.12,-5.43 -3.9,-3.52 -7.42,-7.45 -10.5,-11.7 -1.1,-1.51 -2.17,-3.06 -3.2,-4.65 -1.56,-2.41 -3.05,-4.91 -4.47,-7.49 -2.94,-5.41 -5.57,-10.99 -7.86,-16.7 -6.41,-15.75 -10.9,-32.63 -14.27,-47.13 -6,-25.74 -28.14,-38.77 -57.53,-40.74 -10.83,-0.73 -22.64,0.05 -34.98,2.26 -33.24,5.92 -38.93,25.62 -39.55,36.01 -0.15,2.44 -0.33,4.89 -0.54,7.33 -0.55,6.56 -1.5,13.08 -2.85,19.52 -0.23,1 -0.43,1.99 -0.65,2.96 l -0.26,1.16 c -1.48,6.41 -3.08,12.36 -4.78,17.86 -0.26,0.85 -0.52,1.7 -0.79,2.54 -0.43,1.34 -0.86,2.65 -1.3,3.93 -3.86,11.38 -8.04,20.68 -12.05,28.16 -2.42,4.57 -5.11,8.99 -8.05,13.24 -6.38,9.18 -11.03,12.98 -11.03,12.98 -28.8,23.9 -24.45,59.21 -13.32,85.31 1.77,4.14 3.76,8.19 5.96,12.11 3.29,5.85 6.09,13.13 8.48,21.06 4.93,16.33 8.13,35.39 10.31,50.33 0.45,3.07 0.85,5.97 1.22,8.63 0.87,6.25 1.54,11.21 2.08,14.11 0.3,1.58 0.45,4.18 0.49,7.52 0.1,8.28 -0.49,21.14 -1.32,34.5 -1.5,24.33 -5.01,53.96 -5.28,57.07 5.48,2.54 12.79,0.3 19.13,0.28 h 1.68 l 55.33,-0.17 37.84,-0.11 113.77,-0.34 c 17.41,0.28 33.75,0.45 46.77,0.56 0.06,-0.23 0.13,-0.45 0.19,-0.7 3.1,-12.05 2.25,-24.58 -0.51,-36.75 v 0 z"
       fill="#f1f2f2"
       id="path1" />
    <path
       d="m 83.59,594.55 c -2.39,0 -4.69,-0.3 -6.75,-1.26 l -0.32,-0.15 0.03,-0.35 c 0.05,-0.59 0.22,-2.14 0.47,-4.42 1.08,-9.85 3.59,-32.93 4.81,-52.64 0.96,-15.57 1.41,-27.17 1.32,-34.46 -0.04,-3.44 -0.2,-5.94 -0.48,-7.43 -0.48,-2.56 -1.05,-6.67 -1.77,-11.86 l -0.32,-2.27 c -0.37,-2.66 -0.77,-5.55 -1.22,-8.62 -1.97,-13.45 -5.17,-33.29 -10.29,-50.25 -2.57,-8.53 -5.41,-15.58 -8.44,-20.96 -2.21,-3.92 -4.22,-8.02 -5.99,-12.16 -4.51,-10.57 -9.61,-26.73 -8.35,-43.71 1.27,-17.03 8.61,-31.22 21.81,-42.17 0.05,-0.04 4.69,-3.88 10.94,-12.88 2.92,-4.22 5.61,-8.65 8.01,-13.19 4.5,-8.4 8.54,-17.85 12.01,-28.09 0.43,-1.28 0.87,-2.59 1.29,-3.92 0.27,-0.83 0.53,-1.68 0.79,-2.53 1.74,-5.65 3.34,-11.65 4.77,-17.83 l 0.26,-1.16 c 0.11,-0.48 0.21,-0.96 0.32,-1.45 0.11,-0.5 0.22,-1 0.33,-1.51 1.33,-6.39 2.29,-12.94 2.84,-19.45 0.21,-2.4 0.39,-4.86 0.54,-7.32 0.66,-11.08 6.73,-30.55 39.96,-36.47 12.48,-2.23 24.29,-2.99 35.11,-2.27 31.71,2.12 52.3,16.72 57.98,41.12 2.8,12.07 7.33,30.08 14.24,47.06 2.28,5.67 4.92,11.28 7.84,16.65 1.43,2.61 2.92,5.12 4.45,7.46 1.03,1.58 2.1,3.14 3.19,4.63 3.06,4.22 6.57,8.13 10.43,11.62 2.19,1.97 4.57,3.78 7.05,5.38 0.43,0.28 0.86,0.55 1.31,0.81 2.18,1.32 4.48,2.46 6.84,3.41 31.55,12.64 41.74,32.48 44.11,38.26 l 0.21,0.53 c 1.2,3.09 1.84,5.97 1.84,8.34 0,1.76 0.18,3.34 0.37,5.01 0.96,8.43 1.94,17.14 -19.29,49.31 -21.67,32.87 -7.43,77.4 7.39,112.53 1.65,3.91 3.23,7.54 4.76,11.06 l 0.16,0.36 c 0.96,2.19 1.92,4.42 2.88,6.71 3.21,7.63 5.59,13.97 7.5,19.95 0.16,0.5 0.32,1 0.47,1.5 0.02,0.06 0.03,0.09 0.04,0.13 1.08,3.52 1.94,6.76 2.66,9.91 v 0 c 3.16,13.92 3.33,26.02 0.51,36.98 -0.05,0.22 -0.11,0.43 -0.17,0.64 l -0.1,0.37 -0.4,0.06 c -10.92,-0.09 -27.9,-0.25 -46.77,-0.56 l -208.61,0.62 c -1.98,0 -4.1,0.24 -6.16,0.46 -2.15,0.23 -4.32,0.47 -6.43,0.47 z m -6,-2.02 c 3.57,1.51 8.02,1.02 12.33,0.56 2.08,-0.23 4.24,-0.46 6.27,-0.46 h 1.68 l 206.94,-0.62 c 18.66,0.3 35.46,0.46 46.39,0.55 0.03,-0.11 0.06,-0.21 0.08,-0.31 2.78,-10.81 2.61,-22.76 -0.52,-36.52 v 0 c -0.71,-3.13 -1.57,-6.34 -2.63,-9.81 -0.01,-0.04 -0.04,-0.1 -0.05,-0.17 -0.15,-0.48 -0.31,-0.98 -0.46,-1.47 -1.9,-5.95 -4.27,-12.26 -7.47,-19.87 -0.96,-2.28 -1.92,-4.51 -2.88,-6.7 l -0.16,-0.36 c -1.53,-3.52 -3.12,-7.16 -4.77,-11.07 -14.92,-35.36 -29.24,-80.21 -7.31,-113.47 21.03,-31.86 20.06,-40.39 19.13,-48.64 -0.18,-1.62 -0.38,-3.31 -0.38,-5.12 0,-2.25 -0.61,-5.01 -1.77,-7.99 l -0.2,-0.51 c -2.33,-5.69 -12.37,-25.22 -43.55,-37.71 -2.41,-0.97 -4.76,-2.14 -6.99,-3.48 -0.45,-0.27 -0.9,-0.55 -1.34,-0.84 -2.53,-1.62 -4.94,-3.47 -7.17,-5.47 -3.92,-3.54 -7.47,-7.5 -10.57,-11.78 -1.1,-1.5 -2.18,-3.08 -3.22,-4.67 -1.54,-2.36 -3.04,-4.9 -4.49,-7.53 -2.94,-5.41 -5.59,-11.05 -7.89,-16.75 -6.94,-17.04 -11.48,-35.1 -14.29,-47.21 -5.58,-23.93 -25.85,-38.27 -57.08,-40.35 -10.74,-0.72 -22.47,0.04 -34.86,2.25 -32.55,5.8 -38.49,24.76 -39.14,35.55 -0.15,2.46 -0.33,4.93 -0.54,7.34 -0.55,6.55 -1.51,13.14 -2.86,19.58 -0.12,0.51 -0.22,1.01 -0.33,1.51 -0.11,0.49 -0.21,0.98 -0.32,1.46 l -0.26,1.16 c -1.43,6.2 -3.04,12.22 -4.79,17.9 -0.26,0.86 -0.53,1.71 -0.79,2.54 -0.43,1.34 -0.86,2.65 -1.3,3.94 -3.49,10.29 -7.55,19.79 -12.08,28.24 -2.42,4.56 -5.14,9.04 -8.08,13.29 -6.35,9.13 -10.94,12.93 -11.13,13.08 -32.86,27.27 -20.16,68.34 -13.18,84.72 1.75,4.11 3.75,8.17 5.94,12.06 3.06,5.45 5.93,12.57 8.52,21.16 5.14,17.03 8.36,36.92 10.33,50.4 0.45,3.07 0.85,5.97 1.22,8.63 l 0.32,2.27 c 0.72,5.19 1.29,9.28 1.76,11.82 0.29,1.55 0.46,4.11 0.5,7.6 0.09,7.32 -0.36,18.94 -1.32,34.53 -1.22,19.73 -3.74,42.82 -4.82,52.68 -0.21,1.91 -0.36,3.3 -0.43,4.04 z"
       id="path2" />
  </g>
  <g
     id="g4"
     transform="matrix(-1,0,0,1,865.76,0)">
    <path
       d="m 365.56,547.58 c -0.88,-2.99 -1.85,-5.95 -2.88,-8.86 -0.04,-0.1 -0.07,-0.21 -0.11,-0.31 -0.13,-0.36 -0.26,-0.72 -0.38,-1.08 -1.61,-4.43 -3.34,-8.75 -5.08,-12.91 -0.48,-1.14 -0.96,-2.26 -1.43,-3.37 -0.51,-1.2 -1.03,-2.38 -1.54,-3.55 -1.1,-2.54 -2.26,-5.2 -3.47,-8.01 -0.2,-0.45 -0.39,-0.92 -0.59,-1.4 -0.14,-0.33 -0.28,-0.66 -0.42,-1 -1.75,-4.12 -3.55,-8.47 -5.3,-13.01 -12.07,-31.14 -22.37,-70.85 -2.49,-101.01 23.5,-35.62 19.63,-42.46 18.93,-51.74 -0.06,-0.74 -0.09,-1.5 -0.09,-2.29 0,-3.31 -1.27,-7.81 -4.01,-12.84 -3.54,-6.5 -9.54,-13.88 -18.43,-20.7 -5.26,-4 -10.92,-7.44 -16.89,-10.27 l -1.32,-0.62 c -1.68,-0.77 -3.41,-1.52 -5.2,-2.24 -0.97,-0.39 -1.92,-0.81 -2.86,-1.26 h -0.02 c -3.04,-1.47 -5.93,-3.23 -8.62,-5.27 -4.9,-3.69 -9.31,-8.26 -13.28,-13.46 -1.36,-1.78 -2.67,-3.64 -3.93,-5.56 -0.55,-0.83 -1.08,-1.68 -1.61,-2.53 -2.39,-3.89 -4.58,-7.91 -6.56,-12.03 -0.28,-0.59 -0.56,-1.17 -0.83,-1.76 -2.8,-6.03 -5.29,-12.2 -7.46,-18.48 -0.71,-2 -1.38,-4.01 -2.04,-6.02 -0.43,-1.31 -0.84,-2.62 -1.24,-3.93 -2.88,-9.37 -5.23,-18.62 -7.19,-27.08 -7.07,-30.34 -36.59,-43.03 -73.94,-40.74 -6.23,0.4 -12.42,1.15 -18.56,2.26 -33.24,5.92 -38.93,25.62 -39.55,36.01 -0.09,1.43 -0.18,2.85 -0.29,4.28 -0.15,2.04 -0.33,4.07 -0.55,6.08 -0.08,0.81 -0.17,1.61 -0.27,2.42 -0.55,4.72 -1.29,9.42 -2.29,14.07 l -0.05,0.21 c -0.06,0.3 -0.13,0.59 -0.19,0.88 -1.48,6.76 -3.1,13.03 -4.83,18.83 -0.33,1.1 -0.65,2.18 -0.99,3.24 -1.61,5.16 -3.28,9.93 -5.01,14.32 -0.25,0.65 -0.5,1.29 -0.76,1.92 -2.35,5.88 -5.02,11.63 -8,17.23 -2.42,4.56 -5.11,8.98 -8.05,13.23 -6.38,9.18 -11.04,12.98 -11.04,12.98 -33.58,27.83 -22.11,71.19 -7.37,97.4 0.6,1.07 1.19,2.18 1.75,3.33 5.33,10.85 9.27,25.48 12.23,39.94 2.58,12.58 4.41,25.04 5.77,34.79 0.58,4.14 1.07,7.79 1.5,10.75 0.31,2.17 0.59,3.97 0.85,5.32 0.15,0.85 0.25,1.7 0.3,2.56 0.2,2.6 0.23,6.26 0.17,10.64 -0.11,6.86 -0.51,15.49 -1.04,24.56 -1.58,27.03 -6.64,62.53 -6.64,62.53 l 5.49,-0.93 55.33,-0.17 37.84,-0.11 16.04,-0.05 97.73,-0.29 c 17.41,0.28 33.75,0.45 46.77,0.56 6.33,0.05 11.89,0.09 16.39,0.11 0.08,-0.29 0.15,-0.57 0.23,-0.86 3.76,-14.71 1.66,-30.13 -2.62,-44.73 v 0 z"
       fill="#ffffff"
       id="path3" />
    <path
       d="m 91.78,594.66 0.1,-0.68 c 0.05,-0.35 5.07,-35.79 6.64,-62.49 0.58,-10.03 0.93,-18.28 1.04,-24.54 0.07,-4.85 0.02,-8.22 -0.16,-10.59 -0.05,-0.85 -0.15,-1.69 -0.3,-2.51 -0.23,-1.23 -0.49,-2.88 -0.85,-5.34 -0.26,-1.81 -0.55,-3.89 -0.87,-6.17 l -0.64,-4.57 C 95.3,467.48 93.49,455.3 90.97,443.02 87.49,425.97 83.39,412.57 78.79,403.2 c -0.56,-1.15 -1.14,-2.26 -1.73,-3.3 -17.03,-30.28 -24,-71.93 7.49,-98.03 0.05,-0.04 4.69,-3.88 10.95,-12.88 2.92,-4.22 5.61,-8.66 8.01,-13.18 2.96,-5.55 5.64,-11.33 7.98,-17.18 0.25,-0.63 0.51,-1.27 0.76,-1.92 1.72,-4.36 3.4,-9.16 5,-14.28 0.33,-1.06 0.66,-2.14 0.98,-3.23 1.77,-5.96 3.39,-12.28 4.82,-18.79 l 0.24,-1.1 c 0.95,-4.42 1.7,-9.01 2.28,-14.02 0.09,-0.8 0.18,-1.6 0.27,-2.41 0.2,-1.9 0.38,-3.88 0.54,-6.07 0.11,-1.42 0.2,-2.84 0.29,-4.27 0.66,-11.08 6.73,-30.55 39.96,-36.47 6.13,-1.11 12.4,-1.87 18.62,-2.27 40.65,-2.5 67.79,12.49 74.46,41.12 2.37,10.2 4.72,19.05 7.18,27.04 0.4,1.31 0.81,2.61 1.24,3.92 0.64,1.99 1.33,4.01 2.03,6.01 2.16,6.24 4.67,12.44 7.44,18.43 0.27,0.57 0.54,1.14 0.81,1.71 1.98,4.14 4.18,8.17 6.55,12.03 0.53,0.85 1.06,1.69 1.6,2.52 1.25,1.9 2.57,3.77 3.92,5.53 4.11,5.38 8.54,9.87 13.19,13.37 2.63,1.99 5.47,3.73 8.44,5.17 l 0.12,0.05 c 0.92,0.44 1.88,0.86 2.83,1.24 1.78,0.72 3.54,1.48 5.22,2.25 l 1.32,0.62 c 5.99,2.84 11.7,6.31 16.98,10.32 10.23,7.84 15.74,15.67 18.56,20.85 2.62,4.82 4.07,9.46 4.07,13.08 0,0.73 0.03,1.46 0.09,2.25 0.07,0.94 0.17,1.84 0.28,2.76 0.95,8.43 1.94,17.14 -19.29,49.3 -20.57,31.21 -8.41,72.34 2.54,100.56 1.55,3.99 3.28,8.24 5.3,13 l 0.42,1 c 0.2,0.48 0.4,0.94 0.59,1.39 1.21,2.81 2.37,5.47 3.47,8.01 0.51,1.17 1.02,2.35 1.54,3.55 0.48,1.11 0.95,2.24 1.43,3.37 2,4.77 3.67,9 5.09,12.93 l 0.47,1.33 c 1.09,3.08 2.06,6.07 2.91,8.94 v 0 c 5.08,17.33 5.94,32.04 2.63,45 l -0.33,1.24 h -0.39 c -4.5,-0.03 -10.06,-0.06 -16.39,-0.12 -10.92,-0.09 -27.9,-0.25 -46.77,-0.56 l -206.93,0.62 -6.08,1.04 z M 193.8,154.5 c -2.76,0 -5.59,0.09 -8.5,0.27 -6.18,0.39 -12.41,1.15 -18.51,2.25 -32.55,5.8 -38.49,24.76 -39.14,35.55 -0.09,1.43 -0.18,2.86 -0.29,4.28 -0.17,2.2 -0.35,4.19 -0.55,6.1 -0.08,0.81 -0.17,1.62 -0.27,2.42 -0.59,5.04 -1.34,9.66 -2.3,14.12 l -0.05,0.22 c -0.05,0.23 -0.1,0.46 -0.15,0.7 l -0.04,0.18 c -1.43,6.54 -3.06,12.88 -4.84,18.86 -0.33,1.1 -0.66,2.18 -0.99,3.24 -1.61,5.14 -3.3,9.97 -5.03,14.35 -0.25,0.65 -0.5,1.29 -0.76,1.93 -2.35,5.88 -5.05,11.69 -8.02,17.27 -2.42,4.56 -5.14,9.03 -8.08,13.28 -6.35,9.13 -10.94,12.93 -11.13,13.08 -31.02,25.71 -24.09,66.84 -7.25,96.77 0.6,1.06 1.19,2.19 1.76,3.36 4.64,9.45 8.76,22.93 12.27,40.06 2.52,12.32 4.34,24.51 5.78,34.82 l 0.64,4.58 c 0.32,2.28 0.6,4.36 0.87,6.17 0.35,2.45 0.61,4.08 0.84,5.31 0.15,0.86 0.25,1.74 0.31,2.62 0.18,2.4 0.23,5.79 0.17,10.68 -0.1,6.27 -0.45,14.55 -1.04,24.59 -1.45,24.7 -5.84,56.84 -6.55,61.9 l 4.81,-0.82 207.02,-0.62 c 18.88,0.3 35.85,0.47 46.77,0.56 6.15,0.05 11.57,0.09 16,0.11 l 0.13,-0.48 c 3.27,-12.77 2.41,-27.32 -2.62,-44.46 v 0 c -0.84,-2.85 -1.8,-5.83 -2.87,-8.83 l -0.49,-1.39 c -1.42,-3.91 -3.08,-8.13 -5.07,-12.88 -0.48,-1.13 -0.96,-2.26 -1.43,-3.37 -0.51,-1.2 -1.03,-2.38 -1.54,-3.55 -1.1,-2.54 -2.26,-5.2 -3.47,-8.01 -0.2,-0.45 -0.4,-0.92 -0.6,-1.4 l -0.42,-1 c -2.02,-4.76 -3.76,-9.02 -5.31,-13.02 -11.02,-28.43 -23.27,-69.87 -2.44,-101.47 21.03,-31.86 20.06,-40.39 19.13,-48.64 -0.1,-0.93 -0.21,-1.85 -0.28,-2.79 -0.06,-0.81 -0.1,-1.58 -0.1,-2.33 0,-3.45 -1.4,-7.93 -3.95,-12.6 -2.78,-5.1 -8.2,-12.8 -18.29,-20.54 -5.22,-3.97 -10.87,-7.41 -16.8,-10.21 l -1.32,-0.62 c -1.67,-0.77 -3.41,-1.52 -5.17,-2.23 -0.94,-0.37 -1.88,-0.78 -2.79,-1.22 l -0.12,-0.05 c -3.06,-1.48 -5.99,-3.27 -8.71,-5.32 -4.72,-3.55 -9.22,-8.11 -13.38,-13.56 -1.36,-1.78 -2.69,-3.66 -3.96,-5.59 -0.55,-0.84 -1.09,-1.68 -1.62,-2.54 -2.39,-3.89 -4.61,-7.95 -6.58,-12.08 -0.29,-0.62 -0.57,-1.19 -0.84,-1.77 -2.79,-6.02 -5.31,-12.25 -7.48,-18.52 -0.71,-2.01 -1.39,-4.04 -2.04,-6.03 -0.43,-1.31 -0.84,-2.62 -1.24,-3.94 -2.47,-8.02 -4.82,-16.89 -7.2,-27.11 -6.07,-26.07 -29.54,-40.62 -64.92,-40.62 z"
       id="path4" />
  </g>
  <path
     d="m 712.91,594.77 c 0,0 0.08,0 0.12,-0.02 0.27,-0.07 0.43,-0.34 0.36,-0.61 -10.94,-43.43 -6.92,-102.11 -6.87,-102.69 0.53,-25.72 6.37,-50.39 17.37,-73.35 10.16,-21.23 20.87,-32.72 22.06,-33.96 1.87,-1.95 3.71,-4.03 5.46,-6.16 13.88,-16.92 17.64,-27.73 17.68,-27.83 0.09,-0.26 -0.05,-0.55 -0.31,-0.63 -0.26,-0.09 -0.54,0.05 -0.63,0.31 -0.04,0.11 -3.75,10.76 -17.51,27.52 -1.73,2.11 -3.55,4.17 -5.41,6.1 -1.2,1.25 -12.01,12.85 -22.24,34.22 -11.06,23.09 -16.93,47.9 -17.46,73.74 -0.04,0.56 -4.08,59.4 6.9,102.98 0.06,0.23 0.26,0.38 0.48,0.38 z"
     id="path5" />
  <g
     id="g7"
     transform="matrix(-1,0,0,1,865.76,0)">
    <path
       d="m 402.24,227.88 -2.67,15.65 -6.11,-0.63 c 0.18,-0.94 0.35,-1.86 0.52,-2.76 1.05,-5.76 1.85,-10.81 2.42,-14.61 z"
       fill="#b3a7b9ff"
       id="path6" />
    <path
       d="m 399.99,244.07 -7.11,-0.73 0.1,-0.54 c 0.18,-0.94 0.35,-1.85 0.51,-2.76 0.88,-4.84 1.7,-9.75 2.42,-14.59 l 0.09,-0.63 6.8,2.73 -2.81,16.51 z m -5.93,-1.61 5.1,0.52 2.52,-14.79 -4.88,-1.96 c -0.7,4.65 -1.48,9.36 -2.33,14 -0.13,0.73 -0.27,1.48 -0.42,2.23 z"
       id="path7" />
  </g>
  <g
     id="g9"
     transform="matrix(-1,0,0,1,865.76,0)">
    <path
       d="m 406.99,249.06 c 0,0 -2.39,23.15 -8.5,31.12 -4.39,5.72 -11.83,4.92 -15.67,4.02 5.1,-14.23 8.77,-30.98 11.16,-44.05 11.6,-1.93 13,8.92 13,8.92 z"
       fill="#f6e3ffff"
       id="path8" />
    <path
       d="m 388.08,285.34 c -2.03,0 -3.91,-0.31 -5.36,-0.65 l -0.54,-0.13 0.19,-0.53 c 5.24,-14.64 8.95,-32 11.14,-43.98 l 0.06,-0.35 0.35,-0.06 c 3.71,-0.62 6.79,-0.03 9.18,1.74 3.74,2.77 4.38,7.41 4.4,7.6 v 0.06 c 0,0 0,0.06 0,0.06 -0.1,0.95 -2.47,23.39 -8.6,31.37 -2.93,3.81 -7.12,4.85 -10.82,4.85 z m -4.58,-1.5 c 3.96,0.84 10.61,1.25 14.61,-3.96 5.8,-7.56 8.25,-29.46 8.39,-30.8 -0.08,-0.51 -0.82,-4.52 -4.01,-6.88 -2.09,-1.55 -4.8,-2.09 -8.07,-1.61 -2.17,11.86 -5.81,28.8 -10.93,43.25 z"
       id="path9" />
  </g>
  <g
     id="g11"
     transform="matrix(-1,0,0,1,870.56978,-51.945601)">
    <path
       d="m 736.73,264.93 -15.65,4.49 34.62,9.29 c -3.85,-3.94 -7.69,-7.88 -11.53,-11.82 0.08,-0.19 0.15,-0.39 0.21,-0.59 1.27,-4.75 2.54,-9.5 3.81,-14.25 3.55,0.24 6.36,-0.75 6.89,-2.69 0.55,-2.04 -1.54,-4.49 -4.96,-6.19 -0.31,-1.49 -1.43,-2.68 -2.9,-3.08 -0.17,-0.04 -0.35,-0.07 -0.52,-0.09 -1.2,-0.11 -2.38,0.37 -3.18,1.27 -3.78,-0.36 -6.81,0.63 -7.36,2.65 -0.53,1.94 1.38,4.3 4.55,5.98 -1.3,4.84 -2.59,9.69 -3.88,14.54 -0.04,0.16 -0.07,0.32 -0.09,0.48 v 0 z"
       fill="#f7ce21"
       id="path10" />
    <path
       d="m 757.33,279.67 -38.12,-10.23 17.07,-4.9 c 0.01,-0.07 0.03,-0.14 0.05,-0.21 1.26,-4.73 2.52,-9.45 3.78,-14.17 -3.27,-1.84 -5.01,-4.31 -4.45,-6.36 0.6,-2.19 3.59,-3.37 7.65,-3.04 0.89,-0.9 2.14,-1.36 3.42,-1.25 0.2,0.02 0.4,0.05 0.6,0.1 1.59,0.43 2.8,1.66 3.21,3.22 3.64,1.87 5.6,4.47 5.01,6.66 -0.56,2.04 -3.3,3.24 -7,3.08 l -3.7,13.85 c -0.03,0.12 -0.07,0.23 -0.11,0.34 3.77,3.87 7.54,7.73 11.31,11.59 l 1.27,1.3 z m -34.39,-10.26 31.12,8.35 c -3.42,-3.51 -6.84,-7.01 -10.26,-10.52 l -0.23,-0.24 0.13,-0.31 c 0.07,-0.17 0.13,-0.35 0.18,-0.53 l 3.91,-14.64 0.41,0.03 c 3.38,0.23 5.94,-0.71 6.38,-2.32 0.47,-1.72 -1.42,-3.98 -4.7,-5.61 l -0.22,-0.11 -0.05,-0.24 c -0.28,-1.31 -1.25,-2.35 -2.54,-2.7 -0.14,-0.03 -0.29,-0.06 -0.44,-0.07 -1.04,-0.1 -2.07,0.32 -2.76,1.1 l -0.17,0.19 -0.25,-0.02 c -3.62,-0.35 -6.36,0.57 -6.83,2.28 -0.45,1.63 1.28,3.8 4.3,5.41 l 0.35,0.19 -0.1,0.38 c -1.3,4.84 -2.59,9.69 -3.88,14.54 -0.03,0.13 -0.06,0.27 -0.08,0.41 l -0.04,0.33 -14.24,4.09 z"
       id="path11" />
  </g>
  <g
     id="g13"
     transform="matrix(-1,0,0,1,870.56978,-51.945601)">
    <path
       d="m 743.95,216.03 c -0.24,-2.15 -0.72,-4.26 -1.41,-6.31 -0.01,-0.06 -0.03,-0.12 -0.05,-0.17 -0.52,-1.49 -1.14,-2.94 -1.86,-4.33 -0.6,-1.18 -1.28,-2.32 -2.04,-3.41 -1.3,-1.92 -2.83,-3.67 -4.57,-5.22 -0.56,-0.49 -1.13,-0.96 -1.71,-1.39 -0.87,-0.65 -1.8,-1.23 -2.76,-1.73 l -0.19,-0.09 -0.19,-0.1 c -0.44,-0.23 -0.88,-0.42 -1.32,-0.61 -1.24,-0.52 -2.55,-0.89 -3.88,-1.1 -0.26,-0.05 -0.53,-0.08 -0.79,-0.1 -0.61,-0.06 -1.21,-0.08 -1.82,-0.06 -0.98,0.03 -1.95,0.17 -2.89,0.41 l -0.11,0.03 c -1.03,0.27 -2.02,0.68 -2.94,1.22 l -0.11,0.08 v 0 c 0,0 -0.12,0.07 -0.12,0.07 -0.42,0.26 -0.83,0.53 -1.21,0.83 -0.62,0.49 -1.2,1.02 -1.74,1.61 -0.36,0.4 -0.7,0.82 -1,1.27 -0.12,0.17 -0.24,0.34 -0.36,0.51 -0.23,0.33 -0.4,0.64 -0.58,0.95 -0.91,1.66 -1.57,3.45 -1.94,5.3 -0.37,1.79 -0.53,3.62 -0.48,5.45 0.05,1.82 0.26,3.62 0.64,5.4 0.39,1.84 0.95,3.63 1.68,5.36 0.64,1.54 1.39,3.03 2.26,4.45 1.05,1.73 2.27,3.35 3.63,4.84 1.27,1.37 2.68,2.59 4.21,3.65 1.47,1.02 3.07,1.84 4.75,2.44 1.2,0.45 2.46,0.74 3.74,0.86 1.6,0.16 3.21,0.04 4.76,-0.36 0.67,-0.17 1.32,-0.4 1.94,-0.68 1.61,-0.74 3.06,-1.79 4.25,-3.11 1.23,-1.37 2.2,-2.94 2.87,-4.66 1.3,-3.3 1.77,-7.2 1.32,-11.3 v 0 z m 58.5,4.85 c -0.04,-0.35 -0.09,-0.71 -0.17,-1.1 -0.04,-0.21 -0.08,-0.41 -0.13,-0.62 -0.11,-0.53 -0.25,-1.06 -0.43,-1.57 -0.26,-0.75 -0.59,-1.48 -0.97,-2.18 -0.24,-0.43 -0.5,-0.85 -0.79,-1.25 l -0.07,-0.12 -0.07,-0.12 c -0.63,-0.87 -1.38,-1.65 -2.23,-2.31 l -0.09,-0.07 c -0.77,-0.6 -1.6,-1.12 -2.49,-1.54 -0.55,-0.26 -1.12,-0.49 -1.7,-0.68 -0.25,-0.08 -0.51,-0.16 -0.77,-0.23 -1.77,-0.46 -3.6,-0.64 -5.43,-0.54 h -0.21 c 0,0 -0.21,0.01 -0.21,0.01 -0.71,0.05 -1.41,0.14 -2.11,0.26 h -0.03 c -1.08,0.19 -2.14,0.45 -3.18,0.79 -2.19,0.71 -4.28,1.7 -6.22,2.94 -0.33,0.21 -0.66,0.42 -0.99,0.65 -0.16,0.11 -0.32,0.23 -0.48,0.33 -0.59,0.42 -1.16,0.86 -1.72,1.33 -1.21,0.99 -2.34,2.07 -3.39,3.23 -0.04,0.05 -0.07,0.09 -0.1,0.14 -1.44,1.6 -2.7,3.34 -3.76,5.21 -2.01,3.59 -3.1,7.36 -3.17,10.9 -0.02,0.91 0.04,1.83 0.16,2.73 0.05,0.33 0.1,0.64 0.17,0.96 0.12,0.59 0.29,1.18 0.49,1.75 0.43,1.24 1.04,2.42 1.81,3.49 h 0.01 c 0.27,0.39 0.56,0.75 0.87,1.09 1.56,1.7 3.54,2.97 5.75,3.68 1.22,0.4 2.48,0.64 3.76,0.72 1.77,0.13 3.56,0.02 5.3,-0.32 1.82,-0.35 3.59,-0.9 5.29,-1.64 3.35,-1.49 6.4,-3.57 9.02,-6.14 0.43,-0.42 0.85,-0.85 1.25,-1.29 2.08,-2.27 3.8,-4.85 5.08,-7.65 0.54,-1.21 0.99,-2.46 1.34,-3.74 0.13,-0.5 0.25,-0.98 0.34,-1.46 0.37,-1.85 0.45,-3.75 0.25,-5.63 v 0 z"
       fill="#f7ce21"
       id="path12" />
    <path
       d="m 776.03,249.3 c -0.49,0 -0.98,-0.02 -1.48,-0.05 -1.32,-0.08 -2.62,-0.33 -3.88,-0.75 -2.28,-0.73 -4.34,-2.05 -5.96,-3.81 -0.32,-0.36 -0.63,-0.73 -0.91,-1.12 -0.8,-1.12 -1.44,-2.34 -1.89,-3.63 -0.21,-0.6 -0.38,-1.21 -0.5,-1.81 -0.07,-0.33 -0.13,-0.65 -0.17,-0.99 -0.13,-0.93 -0.18,-1.87 -0.17,-2.81 0.06,-3.63 1.18,-7.48 3.23,-11.14 1.08,-1.9 2.36,-3.69 3.82,-5.3 0,-0.01 0.04,-0.06 0.09,-0.11 1.08,-1.19 2.24,-2.3 3.46,-3.3 0.56,-0.47 1.15,-0.92 1.75,-1.35 l 0.49,-0.34 c 0.33,-0.23 0.67,-0.44 1,-0.66 1.97,-1.26 4.11,-2.27 6.34,-2.99 1.06,-0.35 2.16,-0.62 3.25,-0.8 h 0.11 c 0.63,-0.12 1.35,-0.21 2.08,-0.26 h 0.42 c 1.88,-0.13 3.76,0.06 5.59,0.54 0.26,0.06 0.53,0.15 0.8,0.24 0.6,0.19 1.19,0.43 1.76,0.7 0.91,0.44 1.78,0.98 2.58,1.6 l 0.1,0.08 c 0.88,0.69 1.66,1.5 2.32,2.41 l 0.17,0.28 c 0.27,0.38 0.55,0.82 0.8,1.27 0.39,0.72 0.73,1.48 1,2.25 0.19,0.54 0.34,1.09 0.45,1.63 0.05,0.2 0.09,0.41 0.13,0.62 0.07,0.41 0.13,0.77 0.17,1.14 v 0 c 0.21,1.93 0.12,3.88 -0.26,5.78 -0.09,0.48 -0.21,0.98 -0.35,1.49 -0.36,1.3 -0.82,2.59 -1.37,3.82 -1.31,2.86 -3.05,5.47 -5.17,7.78 -0.4,0.44 -0.83,0.88 -1.27,1.31 -2.67,2.62 -5.75,4.72 -9.17,6.24 -1.73,0.76 -3.54,1.32 -5.4,1.68 -1.3,0.26 -2.63,0.38 -3.96,0.38 z m 8.56,-39.97 c -0.96,0.17 -2.01,0.43 -3.03,0.76 -2.15,0.7 -4.2,1.67 -6.11,2.89 -0.33,0.21 -0.65,0.42 -0.97,0.64 l -0.48,0.33 c -0.57,0.41 -1.14,0.84 -1.68,1.3 -1.19,0.98 -2.31,2.04 -3.34,3.18 l -0.07,0.09 c -1.44,1.61 -2.69,3.33 -3.73,5.17 -1.97,3.51 -3.04,7.19 -3.1,10.66 -0.02,0.88 0.03,1.78 0.16,2.65 0.04,0.31 0.1,0.62 0.16,0.93 0.12,0.56 0.27,1.13 0.47,1.68 0.42,1.2 1.01,2.33 1.74,3.36 0.27,0.37 0.55,0.72 0.85,1.05 1.5,1.63 3.41,2.86 5.53,3.54 1.18,0.39 2.41,0.62 3.64,0.7 1.73,0.12 3.47,0.02 5.18,-0.31 1.78,-0.34 3.52,-0.88 5.18,-1.61 3.3,-1.47 6.29,-3.5 8.87,-6.04 0.43,-0.42 0.84,-0.84 1.23,-1.27 2.05,-2.23 3.73,-4.76 4.99,-7.52 0.53,-1.18 0.97,-2.41 1.32,-3.66 0.13,-0.48 0.24,-0.95 0.33,-1.42 0.36,-1.81 0.44,-3.65 0.24,-5.48 -0.04,-0.34 -0.09,-0.69 -0.16,-1.07 -0.04,-0.2 -0.08,-0.39 -0.12,-0.59 -0.1,-0.52 -0.24,-1.02 -0.41,-1.52 -0.25,-0.72 -0.57,-1.43 -0.93,-2.1 -0.23,-0.41 -0.48,-0.82 -0.76,-1.2 l -0.17,-0.28 c -0.58,-0.79 -1.3,-1.54 -2.11,-2.17 l -0.09,-0.08 c -0.74,-0.58 -1.55,-1.08 -2.39,-1.49 -0.53,-0.25 -1.08,-0.47 -1.63,-0.65 -0.24,-0.08 -0.49,-0.16 -0.73,-0.22 -1.73,-0.45 -3.5,-0.63 -5.28,-0.52 h -0.45 c -0.65,0.06 -1.35,0.15 -2.03,0.27 h -0.11 z m -54.4,27.39 c -0.48,0 -0.95,-0.02 -1.43,-0.07 -1.32,-0.13 -2.62,-0.43 -3.86,-0.89 -1.72,-0.62 -3.36,-1.46 -4.86,-2.5 -1.56,-1.08 -3,-2.33 -4.29,-3.72 -1.39,-1.52 -2.63,-3.17 -3.69,-4.92 -0.88,-1.44 -1.65,-2.96 -2.29,-4.52 -0.73,-1.75 -1.31,-3.59 -1.71,-5.45 -0.39,-1.8 -0.61,-3.65 -0.66,-5.49 -0.05,-1.86 0.12,-3.73 0.49,-5.56 0.38,-1.91 1.05,-3.74 1.99,-5.44 0.18,-0.32 0.37,-0.64 0.6,-0.99 0.12,-0.18 0.24,-0.35 0.37,-0.53 0.31,-0.45 0.66,-0.89 1.04,-1.31 0.55,-0.6 1.16,-1.16 1.8,-1.66 0.4,-0.31 0.83,-0.6 1.26,-0.87 l 0.88,-0.62 v 0.12 c 0.78,-0.4 1.59,-0.71 2.42,-0.92 l 0.11,-0.03 c 0.98,-0.25 1.99,-0.39 3,-0.42 0.63,-0.02 1.26,0 1.89,0.06 0.27,0.03 0.55,0.06 0.83,0.11 1.36,0.22 2.71,0.6 3.99,1.13 0.46,0.19 0.91,0.39 1.36,0.63 l 0.37,0.19 c 0.99,0.52 1.94,1.12 2.83,1.78 0.59,0.43 1.18,0.91 1.75,1.41 1.76,1.57 3.33,3.35 4.65,5.31 0.76,1.1 1.46,2.26 2.07,3.46 0.73,1.42 1.36,2.9 1.88,4.4 0.02,0.08 0.04,0.15 0.06,0.22 0.69,2.03 1.18,4.18 1.42,6.36 v 0 c 0.46,4.16 -0.01,8.15 -1.35,11.54 -0.69,1.77 -1.69,3.39 -2.96,4.81 -1.25,1.37 -2.73,2.46 -4.42,3.23 -0.66,0.29 -1.34,0.53 -2.03,0.71 -1.15,0.3 -2.32,0.45 -3.5,0.45 z m -15.36,-42.65 c -0.18,0.12 -0.35,0.25 -0.52,0.38 -0.6,0.47 -1.16,0.99 -1.67,1.55 -0.35,0.38 -0.67,0.79 -0.96,1.21 -0.13,0.17 -0.24,0.34 -0.36,0.51 -0.22,0.32 -0.39,0.62 -0.56,0.91 -0.89,1.61 -1.52,3.35 -1.89,5.16 -0.36,1.76 -0.52,3.55 -0.47,5.34 0.04,1.78 0.26,3.57 0.63,5.31 0.38,1.8 0.94,3.58 1.65,5.28 0.62,1.51 1.37,2.99 2.23,4.38 1.03,1.69 2.23,3.3 3.58,4.76 1.24,1.33 2.63,2.54 4.13,3.58 1.43,0.99 2.99,1.79 4.63,2.38 1.17,0.43 2.38,0.71 3.62,0.84 1.55,0.16 3.09,0.04 4.58,-0.35 0.64,-0.16 1.26,-0.38 1.87,-0.65 1.56,-0.71 2.93,-1.72 4.09,-2.99 1.19,-1.33 2.13,-2.84 2.77,-4.5 1.28,-3.24 1.73,-7.07 1.29,-11.07 -0.24,-2.11 -0.71,-4.19 -1.39,-6.2 -0.02,-0.09 -0.03,-0.14 -0.05,-0.18 -0.5,-1.45 -1.12,-2.88 -1.83,-4.26 -0.59,-1.16 -1.26,-2.29 -2,-3.35 -1.28,-1.89 -2.79,-3.62 -4.49,-5.13 -0.54,-0.48 -1.11,-0.94 -1.68,-1.36 -0.85,-0.63 -1.76,-1.2 -2.7,-1.7 l -0.38,-0.2 c -0.42,-0.22 -0.84,-0.41 -1.28,-0.59 -1.21,-0.5 -2.48,-0.86 -3.77,-1.07 -0.26,-0.04 -0.51,-0.07 -0.76,-0.1 -0.58,-0.06 -1.17,-0.08 -1.76,-0.06 -0.94,0.03 -1.88,0.16 -2.79,0.39 l -0.11,0.03 c -0.99,0.26 -1.93,0.65 -2.81,1.17 l -0.87,0.62 v -0.05 z"
       id="path13" />
  </g>
  <g
     id="g15"
     transform="matrix(-1,0,0,1,870.56978,-51.945601)">
    <path
       d="m 762.55,199.09 -28.53,-7.71 c -1.49,3.06 -2.69,6.24 -3.59,9.52 -5.74,20.82 1.39,41.14 15.9,45.34 14.52,4.2 30.98,-9.29 36.72,-30.11 0.99,-3.59 1.62,-7.27 1.87,-10.98 l -22.38,-6.06 z"
       fill="#f7ce21"
       id="path14" />
    <path
       d="m 751.78,247.52 c -1.89,0 -3.76,-0.26 -5.58,-0.79 -14.77,-4.28 -22.06,-24.89 -16.25,-45.96 0.91,-3.3 2.12,-6.53 3.62,-9.61 l 0.18,-0.37 51.7,13.99 -0.03,0.41 c -0.25,3.74 -0.89,7.47 -1.89,11.08 -3.42,12.42 -10.91,22.88 -20.02,27.98 -3.88,2.17 -7.86,3.27 -11.74,3.27 z m -17.49,-55.55 c -1.39,2.91 -2.53,5.96 -3.38,9.07 -5.67,20.54 1.32,40.61 15.56,44.73 5.29,1.53 11.01,0.7 16.55,-2.39 8.88,-4.97 16.19,-15.2 19.54,-27.37 0.95,-3.42 1.56,-6.94 1.83,-10.48 l -50.11,-13.55 z"
       id="path15" />
  </g>
  <g
     id="g17"
     transform="matrix(-1,0,0,1,870.56978,-51.945601)">
    <path
       d="m 785.11,201.56 -0.13,-0.04 h -0.01 l -44.23,-12.18 c -0.79,-0.22 -1.58,-0.44 -2.37,-0.66 l -2.67,-0.73 c -0.17,-0.05 -0.34,-0.08 -0.51,-0.09 -1.69,-0.17 -3.35,1.11 -3.74,2.83 -0.45,1.93 0.71,3.86 2.61,4.38 l 5.2,1.43 h 0.02 c 14.73,4.06 29.47,8.12 44.2,12.18 1.85,0.51 3.81,-0.85 4.25,-2.74 0.45,-1.93 -0.71,-3.86 -2.61,-4.38 v 0 z"
       fill="#f7ce21"
       id="path16" />
    <path
       d="m 784.28,209.29 c -0.31,0 -0.63,-0.04 -0.93,-0.12 -14.71,-4.06 -29.43,-8.11 -44.14,-12.16 l -0.08,-0.02 -5.2,-1.43 c -2.17,-0.6 -3.48,-2.78 -2.97,-4.98 0.46,-1.99 2.33,-3.42 4.28,-3.22 0.2,0.02 0.4,0.06 0.59,0.11 l 2.67,0.73 c 0.79,0.22 1.58,0.43 2.37,0.66 l 44.38,12.22 c 2.17,0.6 3.48,2.78 2.97,4.98 -0.25,1.1 -0.97,2.08 -1.96,2.67 -0.62,0.37 -1.3,0.56 -1.97,0.56 z M 739.32,196 l 0.08,0.02 c 14.73,4.06 29.47,8.12 44.2,12.18 0.7,0.19 1.45,0.07 2.13,-0.33 0.76,-0.45 1.31,-1.2 1.5,-2.04 0.39,-1.67 -0.61,-3.34 -2.26,-3.79 L 784.82,202 740.59,189.82 c -0.79,-0.22 -1.58,-0.44 -2.37,-0.66 l -2.67,-0.74 c -0.14,-0.04 -0.28,-0.07 -0.42,-0.08 -1.42,-0.13 -2.87,0.96 -3.21,2.45 -0.39,1.67 0.6,3.34 2.26,3.79 l 5.14,1.41 z"
       id="path17" />
  </g>
  <g
     id="g19"
     transform="translate(-203.96)">
    <path
       d="m 470.3,141.56 c -3.68,-0.05 -7.09,1.94 -8.87,5.16 -2.54,-4.89 -8.55,-6.79 -13.44,-4.26 -3.26,1.69 -5.32,5.04 -5.38,8.71 -0.13,10.36 18.5,20.4 18.5,20.4 0,0 18.88,-8.57 19.03,-19.91 0.07,-5.51 -4.33,-10.03 -9.84,-10.1 z m 44.75,0 c -3.68,-0.05 -7.09,1.94 -8.87,5.16 -2.53,-4.89 -8.54,-6.81 -13.43,-4.28 -3.27,1.69 -5.35,5.05 -5.39,8.73 -0.13,10.36 18.51,20.4 18.51,20.4 0,0 18.88,-8.57 19.03,-19.91 0.07,-5.51 -4.33,-10.03 -9.84,-10.1 0,0 0,0 0,0 v 0 z"
       fill="#b3a7b9ff"
       id="path18"
       style="fill:#ffaaaa" />
    <path
       d="m 461.1,172.13 -0.22,-0.12 c -0.77,-0.42 -18.9,-10.3 -18.77,-20.84 0.05,-3.86 2.22,-7.37 5.65,-9.14 4.86,-2.52 10.82,-0.85 13.68,3.72 1.96,-2.95 5.25,-4.73 8.86,-4.68 v 0 c 5.78,0.08 10.41,4.83 10.34,10.6 -0.15,11.52 -18.54,20.01 -19.32,20.36 l -0.23,0.1 z m -8.53,-30.28 c -1.47,0 -2.96,0.34 -4.35,1.06 -3.1,1.61 -5.06,4.78 -5.11,8.27 -0.12,9.34 15.95,18.67 18.02,19.83 2.12,-1.01 18.38,-9.12 18.51,-19.36 0.07,-5.22 -4.12,-9.52 -9.35,-9.59 v 0 c -3.46,-0.05 -6.73,1.83 -8.42,4.9 l -0.45,0.82 -0.43,-0.83 c -1.68,-3.24 -5,-5.11 -8.42,-5.11 z m 53.28,30.28 -0.22,-0.12 c -0.77,-0.42 -18.9,-10.3 -18.77,-20.84 0.05,-3.88 2.22,-7.39 5.66,-9.17 2.48,-1.28 5.32,-1.52 7.98,-0.67 2.39,0.76 4.38,2.31 5.69,4.41 1.96,-2.95 5.3,-4.69 8.86,-4.68 2.8,0.04 5.41,1.16 7.36,3.16 1.95,2 3.01,4.65 2.97,7.44 -0.15,11.52 -18.54,20.01 -19.32,20.36 l -0.23,0.1 z m -8.53,-30.3 c -1.49,0 -2.97,0.36 -4.33,1.06 -3.12,1.61 -5.08,4.79 -5.12,8.29 -0.12,9.34 15.95,18.67 18.02,19.83 2.12,-1.01 18.38,-9.12 18.51,-19.36 0.03,-2.53 -0.92,-4.92 -2.69,-6.73 -1.77,-1.81 -4.13,-2.83 -6.66,-2.86 v 0 c 0,0 -0.09,0 -0.13,0 -3.46,0 -6.62,1.87 -8.29,4.9 l -0.45,0.82 -0.43,-0.83 c -1.16,-2.25 -3.13,-3.91 -5.54,-4.68 -0.95,-0.3 -1.92,-0.45 -2.89,-0.45 z"
       id="path19" />
  </g>
  <g
     id="g21"
     transform="translate(-203.96)">
    <path
       d="M 622.04,192 H 447.68 c -3.13,0 -5.67,-2.55 -5.68,-5.68 0,-3.13 2.55,-5.67 5.68,-5.68 h 174.36 c 3.13,0 5.67,2.55 5.68,5.68 0,3.13 -2.55,5.67 -5.68,5.68 z"
       fill="#f6e3ffff"
       id="path20"
       style="fill:#ffffff" />
    <path
       d="M 622.04,192.5 H 447.68 c -3.4,-0.01 -6.17,-2.78 -6.18,-6.18 0,-3.4 2.78,-6.17 6.18,-6.18 h 174.36 c 3.4,0 6.17,2.78 6.18,6.18 -0.01,3.4 -2.78,6.17 -6.18,6.18 z M 447.68,181.14 c -2.85,0 -5.17,2.33 -5.18,5.18 0,2.85 2.33,5.17 5.18,5.18 h 174.36 c 2.85,0 5.17,-2.33 5.18,-5.18 0,-2.85 -2.33,-5.17 -5.18,-5.18 z"
       id="path21" />
  </g>
  <g
     id="g23"
     transform="translate(-203.96)">
    <path
       d="M 580.59,180.64 H 447.68 c -3.14,0 -5.68,2.55 -5.68,5.68 0,3.13 2.54,5.67 5.68,5.68 h 132.91 z"
       fill="#f7ce21"
       id="path22" />
    <path
       d="M 581.09,192.5 H 447.68 c -3.4,0 -6.17,-2.77 -6.18,-6.18 0,-3.41 2.77,-6.18 6.18,-6.18 H 581.09 Z M 447.68,181.14 c -2.86,0 -5.18,2.33 -5.18,5.18 0,2.85 2.32,5.17 5.18,5.18 h 132.41 v -10.36 z"
       id="path23" />
  </g>
  <g
     id="g25"
     transform="translate(-203.96)">
    <path
       d="m 617.21,222.3 h -164.7 c -5.8,-0.02 -10.49,-4.71 -10.51,-10.51 0.02,-5.8 4.71,-10.49 10.51,-10.51 h 164.7 c 5.8,0.02 10.49,4.71 10.51,10.51 -0.02,5.8 -4.71,10.49 -10.51,10.51 z"
       fill="#b3a7b9ff"
       id="path24"
       style="fill:#8dd35f" />
    <path
       d="m 617.21,222.8 h -164.7 c -6.05,-0.02 -10.99,-4.96 -11.01,-11.01 0.02,-6.06 4.96,-10.99 11.01,-11.01 h 164.7 c 6.05,0.02 10.99,4.96 11.01,11.01 -0.02,6.06 -4.96,10.99 -11.01,11.01 z m -164.7,-21.02 c -5.5,0.02 -9.99,4.51 -10.01,10.01 0.02,5.5 4.51,9.99 10.01,10.01 h 164.7 c 5.5,-0.02 10,-4.51 10.01,-10.01 -0.02,-5.5 -4.51,-9.99 -10.01,-10.01 z"
       id="path25" />
  </g>
  <g
     id="g27"
     transform="translate(-203.96)">
    <path
       d="M 617.21,201.28 H 601.8 v 21.03 h 15.4 c 5.81,0 10.51,-4.71 10.51,-10.51 0,-5.8 -4.71,-10.51 -10.51,-10.51 v 0 z M 562.3,141.56 c -3.68,-0.05 -7.09,1.94 -8.86,5.16 -2.53,-4.89 -8.54,-6.81 -13.43,-4.28 -3.27,1.69 -5.35,5.05 -5.39,8.73 -0.14,10.36 18.5,20.4 18.5,20.4 0,0 18.88,-8.57 19.03,-19.91 0.07,-5.51 -4.33,-10.03 -9.84,-10.1 0,0 0,0 0,0 v 0 z"
       fill="#f6e3ffff"
       id="path26"
       style="fill:#ffffff" />
    <path
       d="m 617.2,222.81 h -15.9 v -22.03 h 15.91 c 6.07,0 11,4.94 11,11.01 0,6.07 -4.94,11.01 -11.01,11.01 z m -14.9,-1 h 14.9 c 5.52,0 10.01,-4.49 10.01,-10.01 0,-5.52 -4.49,-10.01 -10.01,-10.01 h -14.9 v 20.03 z m -49.21,-49.68 -0.22,-0.12 c -0.77,-0.42 -18.9,-10.3 -18.77,-20.84 0.05,-3.88 2.22,-7.39 5.67,-9.17 2.48,-1.28 5.32,-1.52 7.98,-0.67 2.39,0.76 4.38,2.31 5.69,4.41 1.96,-2.95 5.24,-4.73 8.86,-4.68 2.8,0.04 5.41,1.16 7.36,3.16 1.95,2 3.01,4.65 2.97,7.44 -0.15,11.52 -18.54,20.01 -19.32,20.36 l -0.23,0.1 z m -8.53,-30.3 c -1.49,0 -2.97,0.36 -4.33,1.06 -3.12,1.61 -5.08,4.79 -5.12,8.29 -0.12,9.35 15.95,18.67 18.02,19.83 2.12,-1.01 18.38,-9.12 18.51,-19.36 0.03,-2.53 -0.92,-4.92 -2.69,-6.73 -1.77,-1.81 -4.13,-2.83 -6.66,-2.86 v 0 c -3.48,-0.02 -6.73,1.83 -8.42,4.9 l -0.45,0.82 -0.43,-0.83 c -1.16,-2.25 -3.13,-3.91 -5.54,-4.68 -0.95,-0.3 -1.92,-0.45 -2.89,-0.45 z"
       id="path27" />
  </g>
  <g
     id="g29"
     transform="translate(-203.96)">
    <path
       d="m 535.13,154.38 c 3.01,9.13 17.97,17.18 17.97,17.18 0,0 15.91,-7.24 18.62,-17.18 h -36.6 z"
       fill="#b3a7b9ff"
       id="path28"
       style="fill:#ffaaaa" />
    <path
       d="M 553.09,172.12 552.87,172 c -0.62,-0.33 -15.17,-8.25 -18.21,-17.47 l -0.22,-0.66 h 37.94 l -0.17,0.63 c -2.75,10.06 -18.24,17.21 -18.9,17.51 l -0.23,0.1 z m -17.24,-17.24 c 3.16,7.98 15.48,15.11 17.28,16.12 1.89,-0.9 15.03,-7.46 17.93,-16.12 z"
       id="path29" />
  </g>
  <g
     id="g31"
     transform="matrix(-1,0,0,1,865.76,0)">
    <path
       d="m 125.08,288.32 c -4.48,0.23 -7.46,4.75 -6.14,9.04 3.15,10.2 10,32.83 10.31,37.55 0.41,6.14 -11.46,49.11 -6.56,54.03 4.9,4.91 54.03,-20.05 80.63,-18.42 26.6,1.64 62.63,11.05 70.81,15.96 7.98,4.79 10.51,-19.58 1.55,-43.55 -0.47,-1.23 -0.58,-2.56 -0.33,-3.84 1.77,-8.88 8.82,-45.1 7.38,-50.83 -1.64,-6.56 -51.57,19.65 -73.67,18.01 -17.98,-1.35 -65.22,-18.94 -83.97,-17.95 v 0 z"
       fill="#f1f2f2"
       id="path30" />
    <path
       d="m 125.04,390.07 c -1.27,0 -2.17,-0.25 -2.7,-0.78 -3.14,-3.14 -0.21,-19.04 3.63,-37.95 1.56,-7.69 2.92,-14.34 2.78,-16.4 -0.31,-4.69 -7.3,-27.74 -10.29,-37.44 -0.69,-2.26 -0.31,-4.66 1.04,-6.59 1.3,-1.85 3.32,-2.98 5.55,-3.1 v 0 c 10.7,-0.56 30.17,4.76 48.99,9.9 14.04,3.84 27.31,7.47 35.04,8.05 11.73,0.87 31.65,-6.28 47.64,-12.02 14.56,-5.23 22.93,-8.12 25.61,-6.69 0.45,0.24 0.75,0.61 0.86,1.07 1.44,5.76 -5.28,40.53 -7.38,51.05 -0.23,1.2 -0.12,2.43 0.31,3.57 7.35,19.65 7.15,39.79 2.08,44.01 -0.88,0.73 -2.34,1.35 -4.35,0.14 -8.07,-4.85 -44.39,-14.28 -70.58,-15.89 -14.79,-0.9 -36.51,6.43 -53.96,12.33 -12.04,4.07 -20.14,6.72 -24.29,6.72 z m 1.67,-101.3 c -0.55,0 -1.09,0.01 -1.6,0.04 v 0 c -1.92,0.1 -3.66,1.07 -4.79,2.67 -1.18,1.68 -1.51,3.77 -0.91,5.73 3.73,12.08 10.02,33.04 10.33,37.66 0.15,2.19 -1.15,8.58 -2.8,16.67 -2.75,13.55 -6.92,34.02 -3.91,37.04 1.94,1.94 13.61,-2 25.96,-6.18 17.53,-5.93 39.37,-13.3 54.34,-12.38 26.8,1.65 62.69,11.02 71.04,16.03 1.22,0.73 2.27,0.72 3.19,-0.06 4.72,-3.93 4.71,-23.94 -2.37,-42.89 -0.5,-1.31 -0.62,-2.73 -0.36,-4.11 4.3,-21.58 8.49,-46.2 7.39,-50.62 -0.05,-0.19 -0.16,-0.32 -0.36,-0.43 -2.43,-1.3 -13.3,2.61 -24.81,6.74 -16.08,5.77 -36.1,12.96 -48.05,12.08 -7.83,-0.59 -21.14,-4.23 -35.23,-8.08 -17.83,-4.88 -36.24,-9.91 -47.07,-9.91 z"
       id="path31" />
  </g>
  <g
     id="g33"
     style="fill:#48373e"
     transform="matrix(-1,0,0,1,865.76,0)">
    <path
       d="m 133.88,282.65 c -4.48,0.23 -7.46,4.75 -6.14,9.03 3.15,10.21 10,32.83 10.31,37.55 0.41,6.14 -11.46,49.11 -6.56,54.03 4.9,4.91 54.03,-20.06 80.63,-18.42 26.6,1.64 62.62,11.05 70.81,15.96 7.98,4.78 10.51,-19.58 1.55,-43.55 -0.47,-1.23 -0.58,-2.56 -0.33,-3.84 1.77,-8.88 8.82,-45.1 7.38,-50.83 -1.64,-6.56 -51.57,19.64 -73.67,18.01 -17.97,-1.33 -65.22,-18.92 -83.97,-17.94 v 0 z"
       fill="#b3a7b9ff"
       id="path32"
       style="fill:#48373e" />
    <path
       d="m 133.84,384.39 c -1.27,0 -2.17,-0.25 -2.7,-0.78 -3.14,-3.14 -0.21,-19.05 3.63,-37.95 1.56,-7.69 2.92,-14.34 2.78,-16.4 -0.31,-4.68 -7.3,-27.74 -10.29,-37.44 -0.69,-2.25 -0.31,-4.65 1.04,-6.58 1.3,-1.86 3.33,-2.99 5.55,-3.1 v 0 c 10.69,-0.56 30.14,4.75 48.95,9.89 14.06,3.84 27.34,7.47 35.08,8.05 11.74,0.87 31.65,-6.28 47.65,-12.02 14.56,-5.23 22.93,-8.12 25.61,-6.68 0.45,0.24 0.75,0.61 0.86,1.07 1.44,5.77 -5.28,40.53 -7.38,51.05 -0.23,1.2 -0.12,2.43 0.31,3.57 7.35,19.65 7.15,39.79 2.08,44.01 -0.88,0.73 -2.34,1.35 -4.35,0.15 -8.08,-4.85 -44.41,-14.28 -70.58,-15.89 -14.79,-0.9 -36.51,6.43 -53.96,12.33 -12.04,4.07 -20.14,6.72 -24.29,6.72 z m 1.67,-101.29 c -0.55,0 -1.09,0.01 -1.6,0.04 v 0 c -1.92,0.1 -3.66,1.07 -4.79,2.67 -1.17,1.68 -1.5,3.76 -0.9,5.71 3.73,12.08 10.03,33.05 10.33,37.67 0.15,2.19 -1.15,8.58 -2.8,16.66 -2.76,13.55 -6.92,34.02 -3.91,37.04 1.94,1.94 13.61,-2.01 25.96,-6.18 17.53,-5.93 39.37,-13.31 54.34,-12.38 26.78,1.65 62.68,11.02 71.03,16.03 1.22,0.73 2.27,0.71 3.19,-0.06 4.72,-3.93 4.72,-23.94 -2.37,-42.89 -0.5,-1.31 -0.62,-2.73 -0.36,-4.11 1.49,-7.45 8.82,-44.91 7.39,-50.62 -0.05,-0.19 -0.16,-0.33 -0.36,-0.43 -2.43,-1.29 -13.29,2.61 -24.8,6.74 -16.08,5.77 -36.1,12.96 -48.06,12.08 -7.84,-0.58 -21.16,-4.22 -35.27,-8.08 -17.82,-4.87 -36.21,-9.9 -47.04,-9.9 z"
       id="path33"
       style="fill:#48373e" />
  </g>
  <g
     id="g35"
     style="fill:#b5a7bb;fill-opacity:1"
     transform="matrix(-1,0,0,1,865.76,0)">
    <path
       d="m 450.22,510.8 c 0,0 -0.35,4.13 -1.23,10.21 -0.45,3.12 -1.05,6.77 -1.81,10.63 0,0.03 0,0.06 -0.02,0.09 -0.2,1.03 -0.42,2.07 -0.65,3.13 -0.61,2.85 -1.32,5.76 -2.11,8.63 -0.05,0.16 -0.09,0.33 -0.14,0.49 -1,3.61 -2.22,7.16 -3.66,10.63 -3.15,7.44 -7.24,13.23 -12.46,14.6 -11.02,2.88 -34.14,-16.41 -50.27,-33.2 -0.53,-0.55 -1.05,-1.1 -1.56,-1.64 -0.61,-0.65 -1.22,-1.29 -1.81,-1.93 -1.08,-1.17 -2.12,-2.32 -3.1,-3.44 -1.45,-1.64 -2.79,-3.22 -4,-4.7 0.45,2.56 0.94,5.19 1.45,7.85 0.17,0.9 0.35,1.79 0.53,2.7 0.16,0.82 0.33,1.64 0.5,2.46 1.16,5.67 2.39,11.32 3.68,16.96 1.04,4.56 2.12,9.11 3.23,13.66 1.15,4.73 1.93,9.54 3.24,14.25 0.66,2.37 1.41,4.78 2.51,6.99 0.8,1.58 2.26,2.9 2.94,4.48 0.53,1.27 -3.03,-2.04 -2.74,-1.36 l 0.43,0.98 c 0,0 -4.84,0 -13.05,-0.06 -4.66,-0.02 -10.41,-0.06 -16.97,-0.12 -13.48,-0.11 -30.41,-0.29 -48.43,-0.58 -45.99,-0.73 -95.95,5.83 -117.42,3 -6.56,-0.87 -16.79,-1.42 -12.89,-11.02 0.9,-2.24 2.04,-5.2 3.13,-8.37 1.72,-4.96 3.46,-10.39 4.63,-14.13 0.88,-2.81 1.44,-4.68 1.44,-4.68 l -0.33,-0.12 -0.26,-0.1 c -3.39,-1.26 -20.45,-7.91 -24.39,-16 -3.03,-6.2 -1.98,-13.98 -0.24,-37.46 0.78,-10.52 1.69,-24.19 2.44,-42.28 0.08,-1.94 0.18,-3.87 0.29,-5.79 0.8,-13.32 2.33,-26.58 4.58,-39.73 2.44,-14.52 5.73,-28.89 9.86,-43.02 1.22,-4.13 2.46,-8.04 3.71,-11.67 3.03,-8.85 6.07,-16.12 8.82,-21.32 1.06,-2.08 2.29,-4.07 3.68,-5.94 8.54,-11.08 62.48,-21.07 80.66,-24.16 1.99,-0.34 3.98,-0.66 5.97,-0.98 1.3,-0.15 4,-0.15 7.85,0.14 6.69,0.49 16.81,1.83 28.96,4.72 1.47,0.35 2.97,0.73 4.5,1.13 1.13,-0.93 3.13,-1.04 5.69,-0.55 4.49,0.85 10.74,3.54 17.3,6.88 0.34,0.17 0.68,0.35 1.01,0.52 6.58,3.4 13.4,7.41 18.99,10.83 7.19,4.41 12.34,7.87 12.34,7.87 3.73,2.84 8.45,5.9 12.42,9.19 2.28,1.89 4.3,3.84 5.75,5.88 3.05,4.26 7.98,23.33 12.85,45.02 1.78,7.91 3.55,16.16 5.23,24.17 5.52,26.46 9.96,50.29 9.96,50.29 l 1.68,2.09 14.17,17.62 9.54,11.86 3.57,4.43 z"
       fill="#f6e3ffff"
       id="path34"
       style="fill:#b5a7bb;fill-opacity:1" />
    <path
       d="m 201.38,596.71 c -5.51,0 -10.29,-0.21 -14.15,-0.72 -0.43,-0.06 -0.88,-0.11 -1.34,-0.17 -4.5,-0.56 -10.1,-1.26 -12.1,-4.67 -1.03,-1.76 -0.98,-4.07 0.16,-6.87 0.61,-1.51 1.83,-4.6 3.12,-8.34 1.74,-5.02 3.48,-10.45 4.63,-14.12 0.62,-1.99 1.09,-3.5 1.3,-4.22 l -0.14,-0.05 c -3.41,-1.27 -20.65,-8.01 -24.67,-16.25 -2.74,-5.61 -2.23,-12.31 -0.86,-30.2 0.18,-2.31 0.37,-4.81 0.57,-7.52 0.73,-9.91 1.67,-23.68 2.43,-42.27 0.08,-1.94 0.18,-3.87 0.29,-5.8 0.8,-13.29 2.35,-26.67 4.58,-39.79 2.43,-14.48 5.76,-28.98 9.88,-43.08 1.2,-4.08 2.45,-8.02 3.71,-11.69 2.96,-8.63 6.02,-16.03 8.85,-21.39 1.07,-2.09 2.32,-4.11 3.72,-6.01 8.48,-11.01 59.46,-20.7 80.98,-24.35 1.99,-0.34 3.98,-0.67 5.98,-0.98 1.53,-0.17 4.5,-0.12 7.97,0.13 4.93,0.36 15.26,1.45 29.04,4.74 1.4,0.33 2.83,0.69 4.28,1.07 1.22,-0.84 3.2,-1.01 5.89,-0.5 4.06,0.77 9.93,3.1 17.43,6.92 0.34,0.17 0.68,0.35 1.02,0.52 5.56,2.87 11.96,6.52 19.02,10.85 7.12,4.36 12.31,7.84 12.36,7.88 1.46,1.11 3.03,2.22 4.69,3.4 2.62,1.86 5.33,3.79 7.77,5.82 2.59,2.14 4.5,4.09 5.84,5.97 2.68,3.75 7.03,18.96 12.94,45.2 1.67,7.41 3.42,15.54 5.23,24.18 5.26,25.19 9.59,48.28 9.94,50.18 l 29.01,36.06 -0.02,0.2 c 0,0 -0.36,4.22 -1.23,10.24 -0.52,3.61 -1.13,7.19 -1.81,10.65 l -0.02,0.09 v 0 c -0.2,1.03 -0.42,2.08 -0.65,3.14 -0.65,3.03 -1.37,5.94 -2.12,8.66 l -0.14,0.49 c -1,3.62 -2.24,7.22 -3.68,10.69 -3.64,8.61 -7.95,13.62 -12.8,14.89 -11.06,2.89 -33.47,-15.33 -50.75,-33.34 -0.53,-0.55 -1.05,-1.1 -1.57,-1.65 -0.61,-0.65 -1.22,-1.29 -1.81,-1.93 -1.08,-1.18 -2.12,-2.33 -3.11,-3.45 -0.98,-1.11 -1.92,-2.2 -2.8,-3.25 0.35,1.96 0.73,3.96 1.12,5.97 0.17,0.9 0.35,1.79 0.53,2.69 0.16,0.82 0.33,1.64 0.5,2.46 1.15,5.65 2.39,11.35 3.68,16.95 1.04,4.55 2.12,9.15 3.22,13.65 0.48,1.96 0.9,3.97 1.3,5.91 0.57,2.74 1.17,5.57 1.93,8.31 0.63,2.27 1.37,4.67 2.48,6.9 0.35,0.7 0.86,1.37 1.36,2.02 0.59,0.78 1.21,1.59 1.59,2.49 0.21,0.5 0.01,0.76 -0.13,0.87 -0.43,0.33 -0.94,0 -2,-0.79 l 0.11,0.25 h -0.76 c 0,0 -4.84,0 -13.05,-0.06 -4.66,-0.02 -10.41,-0.06 -16.97,-0.12 -16.77,-0.14 -33.06,-0.33 -48.44,-0.58 -21.92,-0.35 -44.77,0.96 -64.94,2.12 -14.56,0.83 -27.81,1.6 -38.38,1.6 z m 79.35,-287.59 c -0.94,0 -1.72,0.03 -2.28,0.09 -1.97,0.31 -3.96,0.64 -5.94,0.98 -16.7,2.84 -71.86,12.95 -80.35,23.97 -1.36,1.84 -2.59,3.82 -3.63,5.86 -2.81,5.32 -5.85,12.67 -8.79,21.26 -1.25,3.66 -2.5,7.58 -3.7,11.65 -4.11,14.06 -7.42,28.52 -9.85,42.96 -2.23,13.08 -3.77,26.43 -4.57,39.68 -0.12,1.92 -0.21,3.85 -0.29,5.78 -0.77,18.61 -1.71,32.38 -2.44,42.3 -0.2,2.71 -0.39,5.21 -0.57,7.52 -1.35,17.7 -1.86,24.32 0.76,29.69 3.85,7.9 20.76,14.51 24.12,15.75 l 1.03,0.37 -0.14,0.46 c 0,0 -0.57,1.87 -1.45,4.68 -1.15,3.68 -2.9,9.12 -4.64,14.15 -1.3,3.76 -2.52,6.87 -3.14,8.39 -1.03,2.53 -1.1,4.49 -0.22,5.99 1.75,2.98 7.08,3.65 11.36,4.18 0.46,0.06 0.91,0.11 1.35,0.17 11.18,1.48 30.26,0.38 52.35,-0.89 20.18,-1.16 43.07,-2.47 65.01,-2.12 15.37,0.25 31.67,0.44 48.43,0.58 6.56,0.05 12.31,0.09 16.97,0.12 6.3,0.04 10.62,0.05 12.29,0.06 l -0.28,-0.64 0.3,-0.32 c 0.38,-0.29 0.68,-0.06 1.71,0.71 0.07,0.05 0.16,0.12 0.25,0.18 -0.25,-0.38 -0.54,-0.75 -0.83,-1.13 -0.52,-0.69 -1.06,-1.4 -1.46,-2.18 -1.15,-2.3 -1.9,-4.76 -2.55,-7.08 -0.77,-2.77 -1.37,-5.62 -1.95,-8.38 -0.4,-1.93 -0.82,-3.93 -1.3,-5.88 -1.1,-4.51 -2.19,-9.11 -3.23,-13.66 -1.29,-5.6 -2.53,-11.31 -3.69,-16.97 -0.17,-0.82 -0.33,-1.65 -0.5,-2.47 -0.18,-0.9 -0.36,-1.8 -0.53,-2.7 -0.52,-2.66 -1,-5.29 -1.45,-7.86 l -0.33,-1.89 1.21,1.48 c 1.22,1.49 2.56,3.06 3.99,4.68 0.98,1.12 2.02,2.26 3.1,3.43 0.59,0.63 1.19,1.28 1.8,1.92 0.51,0.54 1.04,1.09 1.56,1.64 16.31,16.99 39.12,35.85 49.78,33.07 4.53,-1.19 8.61,-6 12.13,-14.31 1.42,-3.43 2.65,-6.98 3.63,-10.57 l 0.14,-0.49 c 0.75,-2.7 1.46,-5.59 2.11,-8.6 0.23,-1.05 0.44,-2.09 0.65,-3.12 l 0.02,-0.09 c 0.68,-3.45 1.28,-7.01 1.8,-10.6 0.76,-5.25 1.13,-9.08 1.21,-9.98 L 420.78,475 l -0.02,-0.12 c -0.04,-0.24 -4.5,-24.13 -9.96,-50.28 -1.8,-8.63 -3.56,-16.76 -5.22,-24.16 -5.87,-26.11 -10.17,-41.19 -12.77,-44.84 -1.29,-1.81 -3.15,-3.7 -5.67,-5.78 -2.42,-2 -5.11,-3.92 -7.71,-5.77 -1.66,-1.18 -3.24,-2.3 -4.69,-3.41 -0.03,-0.02 -5.2,-3.49 -12.3,-7.84 -7.04,-4.31 -13.42,-7.95 -18.96,-10.81 -0.33,-0.17 -0.67,-0.35 -1.01,-0.52 -7.42,-3.78 -13.19,-6.08 -17.16,-6.83 -2.55,-0.49 -4.33,-0.34 -5.28,0.45 l -0.2,0.16 -0.25,-0.07 c -1.52,-0.4 -3.02,-0.78 -4.49,-1.13 -13.71,-3.27 -23.98,-4.35 -28.88,-4.71 -2.09,-0.15 -3.99,-0.23 -5.48,-0.23 z"
       id="path35"
       style="fill:#000000;fill-opacity:1" />
  </g>
  <g
     id="g37"
     transform="matrix(-1,0,0,1,865.76,0)">
    <path
       d="m 411.29,424.49 c -39.4,9.06 -80.63,6.59 -121.17,6.78 -25.89,0.12 -51.92,1.36 -77.58,-2.1 -16.12,-2.16 -32.25,-6.33 -46.84,-13.36 2.44,-14.52 5.73,-28.89 9.86,-43.02 29.34,12.89 61.08,20.44 92.96,24.44 43.16,5.43 86.85,4.57 130.34,3.45 2.37,-0.06 4.79,-0.15 7.21,-0.35 1.78,7.9 3.55,16.15 5.23,24.16 v 0 z"
       fill="#f7ce21"
       id="path36"
       style="fill:#916f7c" />
    <path
       d="m 256.66,432.08 c -14.71,0 -29.59,-0.45 -44.19,-2.41 -17.62,-2.37 -33.43,-6.88 -46.99,-13.4 l -0.34,-0.16 0.06,-0.37 c 2.43,-14.49 5.76,-28.98 9.88,-43.08 l 0.16,-0.55 0.52,0.23 c 26.97,11.85 58.2,20.06 92.82,24.4 44.86,5.64 92.21,4.42 130.26,3.44 2.15,-0.06 4.68,-0.14 7.18,-0.35 l 0.43,-0.04 0.1,0.42 c 1.64,7.3 3.4,15.43 5.23,24.17 l 0.1,0.48 -0.48,0.11 c -32.07,7.38 -65.8,7.13 -98.42,6.88 -7.5,-0.06 -15.26,-0.12 -22.86,-0.08 -4.99,0.02 -9.98,0.09 -14.97,0.15 -6.11,0.08 -12.28,0.16 -18.49,0.16 z m -90.41,-16.56 c 13.39,6.39 28.98,10.82 46.35,13.15 20.68,2.79 41.95,2.51 62.53,2.25 5,-0.06 9.99,-0.13 14.98,-0.15 7.61,-0.04 15.37,0.02 22.88,0.08 32.4,0.24 65.9,0.5 97.71,-6.74 -1.75,-8.39 -3.44,-16.21 -5.03,-23.25 -2.38,0.19 -4.76,0.27 -6.8,0.32 -38.08,0.98 -85.48,2.2 -130.41,-3.45 -34.5,-4.33 -65.64,-12.49 -92.58,-24.25 -4,13.77 -7.24,27.91 -9.63,42.05 z"
       id="path37" />
  </g>
  <g
     opacity="0.35"
     id="g38"
     transform="matrix(-1,0,0,1,865.76,0)">
    <path
       d="m 290.4,513.19 0.11,-0.85 c -0.03,0.28 -0.06,0.56 -0.11,0.85 z"
       fill="#97141a"
       id="path38" />
  </g>
  <path
     d="m 425.65,516.28 32.18,20.98 c 0,0 -12.41,29.64 -21.15,28.28 -8.74,-1.37 -18.39,-39.68 -18.39,-39.68 z"
     id="path39" />
  <path
     d="m 455.3,499.97 c 0,0 -5.53,-5.18 -8.29,-8.23 -2.76,-3.05 -6.14,-4.57 -8.29,-3.96 -2.15,0.61 -3.07,4.57 -0.61,11.88 l 17.2,0.31 z"
     fill="#c2c2c2"
     id="path40" />
  <g
     id="g42"
     transform="matrix(-1,0,0,1,865.76,0)">
    <path
       d="m 437.93,502.99 c 0,0 14.88,4.7 15.89,8.72 1.02,4.02 0.34,6.04 0.34,6.04 0,0 6.09,9.72 3.04,13.75 0,0 0,9.04 -3.72,12.41 0,0 0,6.71 -6.42,9.39 -6.42,2.68 -29.42,1.68 -34.49,0.33 -5.07,-1.35 -2.71,-6.71 -2.71,-6.71 0,0 -4.4,0 -6.43,-3.02 -2.03,-3.02 1.69,-6.71 1.69,-6.71 0,0 -6.76,-2.68 -7.78,-4.7 -1.02,-2.01 5.17,-6.53 5.17,-6.53 l 6.56,0.1 c 0,0 1.13,-2.29 6.19,-3.3 5.06,-1.01 10.82,-1.34 10.82,-1.34 0,0 8.12,0 10.15,-1.34 2.03,-1.34 1.7,-17.11 1.7,-17.11 v 0 z"
       fill="#ffc0c0"
       id="path41" />
    <path
       d="m 431.07,555.48 c -7.85,0 -15.89,-0.64 -18.62,-1.37 -1.55,-0.41 -2.62,-1.21 -3.19,-2.39 -0.76,-1.57 -0.39,-3.39 -0.1,-4.34 -1.38,-0.13 -4.47,-0.71 -6.15,-3.2 -1.77,-2.63 0.26,-5.59 1.26,-6.79 -1.82,-0.76 -6.47,-2.86 -7.38,-4.67 -1.15,-2.28 4.23,-6.36 5.33,-7.16 l 0.13,-0.1 6.45,0.1 c 0.49,-0.69 2.12,-2.44 6.37,-3.28 5.04,-1 10.83,-1.35 10.89,-1.35 2.25,0 8.34,-0.23 9.9,-1.26 1.12,-0.74 1.63,-9.07 1.47,-16.68 v -0.7 c 0,0 0.65,0.21 0.65,0.21 1.55,0.49 15.17,4.9 16.23,9.08 0.85,3.39 0.54,5.42 0.39,6.08 0.85,1.41 5.8,9.95 3,14 -0.02,1.27 -0.27,9.12 -3.73,12.47 -0.08,1.23 -0.75,7.13 -6.72,9.63 -3.02,1.26 -9.53,1.72 -16.19,1.72 z m -28.39,-29 c -2.34,1.74 -5.44,4.71 -4.89,5.8 0.76,1.51 5.68,3.73 7.52,4.46 l 0.71,0.28 -0.54,0.54 c 0,0 -3.4,3.44 -1.63,6.08 1.85,2.76 5.97,2.8 6.01,2.8 h 0.76 c 0,0 -0.3,0.7 -0.3,0.7 -0.01,0.02 -1.02,2.38 -0.16,4.17 0.43,0.9 1.29,1.52 2.54,1.85 4.85,1.28 27.91,2.3 34.17,-0.31 6.05,-2.53 6.12,-8.87 6.12,-8.93 v -0.22 l 0.16,-0.15 c 3.51,-3.18 3.56,-11.95 3.56,-12.04 v -0.17 l 0.1,-0.13 c 2.8,-3.71 -3.01,-13.09 -3.07,-13.19 l -0.13,-0.2 0.08,-0.22 c 0,0 0.61,-1.96 -0.35,-5.76 -0.74,-2.92 -10.44,-6.68 -14.9,-8.15 0.06,3.78 0.07,15.51 -1.94,16.83 -2.09,1.38 -9.57,1.42 -10.42,1.42 -0.03,0 -5.76,0.34 -10.72,1.33 -4.7,0.93 -5.83,3.01 -5.84,3.03 l -0.14,0.27 h -0.31 z"
       id="path42" />
  </g>
  <path
     d="m 458.77,537.03 c 0.26,0 0.48,-0.21 0.5,-0.47 0.02,-0.28 -0.2,-0.51 -0.47,-0.53 l -19.9,-1.13 c -0.33,-0.01 -0.51,0.2 -0.53,0.47 -0.02,0.28 0.2,0.51 0.47,0.53 l 19.9,1.13 c 0,0 0.02,0 0.03,0 z"
     id="path43" />
  <path
     d="m 454.7,547.43 c 0.26,0 0.48,-0.21 0.5,-0.47 0.02,-0.28 -0.19,-0.51 -0.47,-0.53 l -35.05,-2.04 c -0.27,-0.02 -0.51,0.19 -0.53,0.47 -0.02,0.28 0.19,0.51 0.47,0.53 l 35.05,2.04 c 0,0 0.02,0 0.03,0 z"
     id="path44" />
  <path
     d="m 543.89,561.34 c 2.2,8.79 4.78,15.65 7.01,17.49 2.97,2.47 4.6,-10.42 4.6,-10.42 0.15,-2.08 0.28,-4.1 0.4,-6.04 1.38,-23.31 0.07,-36.7 -1.89,-44.39 -2.65,-10.42 -6.51,-10.38 -6.51,-10.38 -3.36,-1.05 -5.58,0.82 -6.9,4.55 -3.53,9.89 -0.8,32.87 3.28,49.19 z"
     id="path45" />
  <g
     id="g47"
     transform="matrix(-1,0,0,1,865.76,0)">
    <path
       d="m 327.77,320.82 0.15,0.02 c -0.15,1.93 -0.34,4.36 -0.55,7.12 -0.69,9.14 -1.61,21.88 -2.11,31.85 -0.05,0.96 -0.44,1.87 -1.1,2.57 -7.82,8.04 -22.54,7.86 -38.21,3.57 -9.81,-2.69 -14.25,-10.58 -15.89,-19.69 -1.3,-7.22 -0.68,-14.64 1.57,-21.62 1.19,-3.69 2.07,-5.99 2.07,-5.99 0,0 2.27,-4.4 5.19,-10.97 2.54,-5.73 5.56,-13.1 7.99,-20.65 6.24,17.29 21.47,30.74 40.91,33.79 z"
       fill="#ffc0c0"
       id="path46" />
    <path
       d="m 305.2,369.4 c -6.58,0 -13.46,-1.34 -19.4,-2.97 -8.81,-2.41 -14.28,-9.17 -16.25,-20.09 -1.28,-7.11 -0.73,-14.67 1.58,-21.86 1.18,-3.67 2.07,-5.99 2.08,-6.01 0.05,-0.1 2.33,-4.51 5.2,-10.99 3.25,-7.33 5.93,-14.26 7.97,-20.6 l 0.45,-1.4 0.5,1.38 c 6.4,17.72 21.92,30.55 40.51,33.46 l 0.61,0.09 -0.04,0.46 c -0.15,1.93 -0.34,4.36 -0.55,7.12 -0.68,8.96 -1.6,21.75 -2.11,31.84 -0.05,1.08 -0.49,2.11 -1.24,2.89 -4.82,4.96 -11.87,6.67 -19.31,6.67 z m -31.08,-50.52 c 0,0 -0.87,2.29 -2.04,5.91 -2.26,7.04 -2.8,14.43 -1.55,21.38 1.89,10.5 7.12,17 15.53,19.3 12.38,3.39 28.98,5.55 37.72,-3.44 0.58,-0.6 0.92,-1.4 0.96,-2.24 0.51,-10.1 1.43,-22.9 2.11,-31.86 0.19,-2.54 0.37,-4.81 0.51,-6.66 -18.35,-2.99 -33.72,-15.45 -40.49,-32.72 -1.99,6 -4.53,12.5 -7.56,19.35 -2.88,6.5 -5.17,10.94 -5.2,10.99 v 0 z"
       id="path47" />
  </g>
  <g
     id="g49"
     transform="matrix(-1,0,0,1,865.76,0)">
    <path
       d="m 351.77,174.21 -0.97,-0.15 c -28.39,-4.46 -55.02,14.95 -59.48,43.34 l -6.9,43.93 c -1.41,8.95 -0.44,17.73 2.44,25.7 6.24,17.29 21.47,30.74 40.91,33.79 l 0.15,0.02 0.82,0.13 c 28.39,4.46 55.02,-14.95 59.48,-43.34 l 6.9,-43.93 c 4.46,-28.39 -14.95,-55.02 -43.34,-59.48 z"
       fill="#ffc0c0"
       id="path48" />
    <path
       d="m 336.84,322.1 c -2.7,0 -5.43,-0.21 -8.18,-0.64 l -0.97,-0.15 c -18.96,-2.97 -34.78,-16.05 -41.3,-34.11 -2.98,-8.25 -3.83,-17.22 -2.46,-25.94 l 6.9,-43.93 c 2.18,-13.86 9.62,-26.05 20.96,-34.32 11.34,-8.26 25.23,-11.62 39.09,-9.44 l 0.97,0.15 c 28.62,4.49 48.25,31.43 43.76,60.05 l -6.9,43.93 c -4.06,25.87 -26.47,44.4 -51.88,44.4 z m 5.78,-148.19 c -10.82,0 -21.33,3.4 -30.24,9.9 -11.13,8.11 -18.43,20.06 -20.56,33.67 l -6.9,43.93 c -1.34,8.55 -0.51,17.35 2.41,25.45 6.4,17.72 21.92,30.55 40.51,33.46 l 0.97,0.15 c 2.69,0.42 5.38,0.63 8.02,0.63 24.93,0 46.9,-18.17 50.89,-43.56 l 6.9,-43.93 c 4.41,-28.08 -14.85,-54.5 -42.93,-58.91 v 0 c 0,0 -0.97,-0.15 -0.97,-0.15 -2.71,-0.42 -5.41,-0.63 -8.1,-0.63 z"
       id="path49" />
  </g>
  <g
     id="g51"
     style="fill:#ff9955"
     transform="matrix(-1,0,0,1,865.76,0)">
    <path
       d="m 413.41,201.33 c 0,0 -15.24,30.5 -53.01,19.77 0,0 -8.49,-3.23 -13.84,-8.55 -1.3,-1.24 -2.38,-2.69 -3.22,-4.28 0,0 -1.11,0.31 -2.94,0.63 -4.56,0.8 -13.59,1.66 -21.28,-1.95 -3.19,-1.47 -5.96,-3.73 -8.05,-6.56 l -0.06,-0.09 c 0,0 0.45,6.33 3.75,11.04 0,0 -11.04,-1.65 -10.51,-12.99 0.02,-0.57 -4.05,3.94 -7.96,27.63 -3.9,23.69 -12.91,13.21 -12.91,13.21 l -18.17,-2.21 c 0,0 -4.3,-45.69 8.71,-54.55 13,-8.86 18.17,-1.05 18.17,-1.05 0,0 9.39,-24.7 40.09,-24.93 30.7,-0.23 44.3,9.91 51.05,20.58 6.76,10.67 22.53,14.87 28.53,9.76 0,0 0.58,14.32 -6.52,16.49 l 8.16,-1.96 z"
       id="path50"
       style="fill:#ff9955" />
    <path
       d="m 287.87,242.01 c -2.34,0 -4.22,-1.79 -4.73,-2.33 l -18.38,-2.24 -0.04,-0.4 c -0.18,-1.88 -4.17,-46.09 8.92,-55.01 5.12,-3.49 9.68,-4.88 13.54,-4.12 2.48,0.49 4.02,1.75 4.77,2.54 1.93,-4.2 12.61,-24.28 40.23,-24.48 0.35,0 0.69,0 1.03,0 25.07,0 41.58,6.81 50.45,20.81 3.71,5.86 10.78,10.36 17.99,11.46 4.14,0.63 7.7,-0.03 9.79,-1.81 l 0.78,-0.67 0.04,1.03 c 0.02,0.51 0.38,10.85 -4.09,15.29 l 6.16,-1.48 -0.48,0.96 c -0.15,0.31 -15.86,30.75 -53.59,20.03 -0.39,-0.15 -8.69,-3.35 -14.06,-8.67 -1.24,-1.19 -2.29,-2.55 -3.12,-4.06 -0.48,0.12 -1.38,0.33 -2.6,0.54 -4.73,0.82 -13.81,1.66 -21.58,-1.99 -2.74,-1.26 -5.19,-3.11 -7.17,-5.38 0.37,2.18 1.29,5.98 3.43,9.03 l 0.67,0.95 -1.15,-0.17 c -0.11,-0.02 -10.49,-1.69 -10.94,-12.01 -1.28,2.33 -4.13,9.07 -6.96,26.24 -1.56,9.47 -4.15,14.78 -7.7,15.77 -0.42,0.12 -0.83,0.17 -1.23,0.17 z m -22.19,-5.47 17.96,2.19 0.13,0.15 c 0,0 2.42,2.75 5.07,2 2.16,-0.61 5.12,-3.7 6.98,-14.97 3.55,-21.56 7.41,-28.09 8.45,-28.09 0,0 0.02,0 0.02,0 l 0.47,0.05 v 0.52 c -0.4,8.7 6.19,11.45 8.93,12.21 -2.73,-4.59 -3.15,-10 -3.17,-10.25 l -0.12,-1.72 1.09,1.47 c 2.03,2.75 4.75,4.97 7.86,6.4 7.53,3.54 16.38,2.71 20.99,1.91 1.78,-0.31 2.88,-0.62 2.89,-0.62 l 0.39,-0.11 0.19,0.36 c 0.81,1.55 1.86,2.94 3.12,4.15 5.23,5.19 13.59,8.41 13.68,8.44 33.02,9.38 48.79,-13.46 51.83,-18.55 l -7.05,1.69 -0.26,-0.96 c 5.61,-1.71 6.15,-11.83 6.17,-15.02 -2.36,1.53 -5.78,2.04 -9.77,1.43 -7.49,-1.14 -14.83,-5.81 -18.69,-11.91 -8.79,-13.88 -25.35,-20.52 -50.63,-20.34 -29.99,0.22 -39.54,24.36 -39.63,24.6 l -0.34,0.9 -0.54,-0.8 c 0,0 -1.48,-2.16 -4.71,-2.78 -3.58,-0.69 -7.88,0.64 -12.76,3.97 -11.97,8.16 -8.9,49.17 -8.52,53.69 z"
       id="path51"
       style="fill:#000000" />
  </g>
  <path
     d="m 483.4,521.01 c 6.68,0.9 26.09,-2.72 26.09,-2.72 l 3.33,2.42 -12.74,2.74 -7.58,1.51 c 0,0 -0.25,0.31 -0.63,0.82 2.31,3.06 10,13.03 12.31,13.22 0,0 32.21,17.85 27.1,-3.44 -0.82,-3.28 -2.22,-6.38 -4.14,-9.15 L 514.7,508.12 c -0.77,-1.14 -1.62,-2.23 -2.54,-3.26 -2.46,-0.27 -4.86,-0.52 -5.4,-0.52 -1.22,0 -21.84,4.24 -24.58,6.07 -2.74,1.83 -5.46,9.71 1.21,10.61 v 0 z"
     fill="#029d99"
     id="path52" />
  <g
     id="g54"
     style="fill:#000000"
     transform="matrix(-1,0,0,1,865.76,0)">
    <path
       d="m 438.92,507.47 c -0.18,-1.06 -0.34,-2.04 -0.45,-2.84 -0.68,-4.78 -2.05,-4.78 -3.34,-6.07 -0.94,-0.94 -9.54,-0.35 -14.13,0.04 v -2.47 h 0.77 c 0.43,0 0.79,-0.35 0.79,-0.79 v -1.07 c 0,-1.21 -0.98,-2.18 -2.18,-2.18 h -6.53 c -1.21,0 -2.18,0.98 -2.18,2.18 v 1.07 c 0,0.43 0.35,0.79 0.79,0.79 h 0.77 v 2.63 l -3.49,-0.08 h -0.05 c -7.01,-0.16 -17.23,-0.4 -26.14,-0.64 v -1.92 h 0.77 c 0.43,0 0.79,-0.35 0.79,-0.79 v -1.07 c 0,-1.21 -0.98,-2.18 -2.18,-2.18 h -6.52 c -1.21,0 -2.18,0.98 -2.18,2.18 v 1.07 c 0,0.43 0.35,0.79 0.79,0.79 h 0.76 v 1.69 l -2.11,-0.07 h -0.07 l -2.17,-0.07 c -3.53,-0.12 -5.91,-0.24 -6.34,-0.33 -0.69,-0.14 -1.98,0.36 -3.43,1.13 -2.16,1.14 -4.16,2.57 -5.95,4.23 -0.73,0.67 -1.43,1.38 -2.08,2.13 2.46,-0.27 4.86,-0.52 5.4,-0.52 1.22,0 21.85,4.27 24.58,6.08 2.72,1.81 5.47,9.69 -1.22,10.61 -6.68,0.91 -26.09,-2.72 -26.09,-2.72 l -2.42,1.76 v 0 l -0.91,0.66 1.1,0.24 v 0 l 11.63,2.5 7.58,1.51 c 0,0 0.25,0.31 0.63,0.82 0.42,-0.56 0.66,-0.89 0.66,-0.89 l 6.13,0.15 4.75,0.12 25.98,0.64 c 0,0 22.29,-3.42 26.16,-4.55 1.42,-0.42 2.01,-2.12 2.16,-4.34 v 0 c 0.19,-2.82 -0.34,-6.47 -0.79,-9.42 z"
       fill="#f7ce21"
       id="path53"
       style="fill:#000000" />
    <path
       d="m 373.88,526.6 -0.4,-0.54 c -0.22,-0.3 -0.39,-0.52 -0.5,-0.66 l -7.4,-1.47 -13.84,-2.97 4.41,-3.21 0.21,0.04 c 0.19,0.04 19.4,3.61 25.93,2.72 2.02,-0.28 3.24,-1.24 3.61,-2.85 0.59,-2.57 -1.14,-5.88 -2.6,-6.85 -2.66,-1.77 -23.29,-5.99 -24.3,-5.99 -0.25,0 -1.28,0.07 -5.34,0.52 l -1.29,0.14 0.86,-0.97 c 0.67,-0.76 1.38,-1.48 2.12,-2.16 1.82,-1.69 3.85,-3.14 6.05,-4.3 2.39,-1.26 3.3,-1.28 3.77,-1.18 0.22,0.04 1.32,0.15 6.26,0.32 l 3.84,0.13 v -0.68 h -0.26 c -0.71,0 -1.29,-0.58 -1.29,-1.29 v -1.07 c 0,-1.48 1.21,-2.68 2.68,-2.68 h 6.52 c 1.48,0 2.68,1.2 2.68,2.68 v 1.07 c 0,0.71 -0.58,1.29 -1.29,1.29 h -0.27 v 0.93 c 8.79,0.24 18.77,0.47 25.65,0.62 l 3.02,0.07 v -1.61 h -0.27 c -0.71,0 -1.29,-0.58 -1.29,-1.29 v -1.07 c 0,-1.48 1.21,-2.68 2.68,-2.68 h 6.53 c 1.48,0 2.68,1.2 2.68,2.68 v 1.07 c 0,0.71 -0.58,1.29 -1.29,1.29 h -0.27 v 1.43 c 12.77,-1.06 13.68,-0.15 13.98,0.15 0.25,0.25 0.5,0.44 0.74,0.64 1.06,0.84 2.16,1.71 2.74,5.71 0.11,0.8 0.27,1.77 0.45,2.83 v 0 c 0.5,3.3 0.98,6.75 0.8,9.54 -0.18,2.74 -1.03,4.35 -2.52,4.79 -3.85,1.13 -25.31,4.42 -26.22,4.56 l -36.68,-0.9 c -0.11,0.15 -0.29,0.38 -0.51,0.68 l -0.4,0.54 z m 0.42,-2.23 37.11,0.92 c 0.13,-0.03 22.22,-3.42 26.01,-4.53 1.04,-0.31 1.65,-1.62 1.8,-3.9 0.18,-2.69 -0.31,-6.21 -0.79,-9.31 -0.18,-1.07 -0.34,-2.04 -0.45,-2.85 -0.52,-3.61 -1.37,-4.29 -2.37,-5.07 -0.28,-0.22 -0.55,-0.44 -0.83,-0.71 -0.49,-0.41 -4.38,-0.61 -13.73,0.19 l -0.54,0.05 v -3.52 h 1.27 c 0.16,0 0.29,-0.13 0.29,-0.29 v -1.07 c 0,-0.93 -0.75,-1.68 -1.68,-1.68 h -6.53 c -0.93,0 -1.68,0.75 -1.68,1.68 v 1.07 c 0,0.16 0.13,0.29 0.29,0.29 h 1.27 v 3.64 l -4,-0.09 c -7.06,-0.16 -17.28,-0.4 -26.19,-0.64 h -0.49 v -2.92 h 1.27 c 0.16,0 0.29,-0.13 0.29,-0.29 v -1.07 c 0,-0.93 -0.75,-1.68 -1.68,-1.68 h -6.52 c -0.93,0 -1.68,0.75 -1.68,1.68 v 1.07 c 0,0.16 0.13,0.29 0.29,0.29 h 1.26 v 2.71 l -4.87,-0.16 c -5.77,-0.2 -6.26,-0.31 -6.43,-0.34 -0.23,-0.05 -0.97,-0.04 -3.1,1.08 -2.12,1.12 -4.08,2.52 -5.84,4.15 -0.39,0.36 -0.78,0.73 -1.15,1.12 2.33,-0.25 3.71,-0.38 4.12,-0.38 1.07,0 21.98,4.25 24.85,6.16 1.94,1.29 3.68,5.02 3.02,7.9 -0.33,1.42 -1.36,3.19 -4.45,3.62 -6.38,0.87 -23.79,-2.28 -26.03,-2.69 l -2.25,1.64 v 0 c 0,0 11.63,2.5 11.63,2.5 l 7.75,1.54 0.11,0.14 c 0,0 0.09,0.11 0.24,0.3 0.17,-0.23 0.26,-0.35 0.26,-0.35 l 0.16,-0.21 z"
       id="path54"
       style="fill:#000000" />
  </g>
  <g
     id="g56"
     transform="matrix(-1,0,0,1,443.4615,146.21725)">
    <path
       d="m 262.05,85.48 0.74,10.24 c 0.09,1.23 0.96,2.27 2.16,2.57 l 9.95,2.46 c 2.68,0.66 2.95,4.38 0.39,5.43 l -9.5,3.86 c -1.15,0.47 -1.86,1.62 -1.77,2.85 l 0.74,10.23 c 0.2,2.76 -3.25,4.16 -5.03,2.04 l -6.61,-7.85 c -0.8,-0.95 -2.11,-1.27 -3.26,-0.8 l -9.5,3.86 c -2.56,1.04 -4.96,-1.81 -3.5,-4.15 l 5.42,-8.72 c 0.65,-1.05 0.56,-2.4 -0.24,-3.35 l -6.61,-7.85 c -1.78,-2.12 0.18,-5.28 2.87,-4.61 l 9.95,2.47 c 1.2,0.3 2.46,-0.21 3.11,-1.26 l 5.43,-8.71 c 1.45,-2.35 5.07,-1.45 5.26,1.3 v 0 z"
       fill="#f7ce21"
       id="path55" />
    <path
       d="m 261.89,126.69 c -0.96,0 -1.89,-0.42 -2.55,-1.21 l -6.61,-7.85 c -0.66,-0.78 -1.74,-1.05 -2.69,-0.66 l -9.5,3.86 c -1.37,0.56 -2.88,0.18 -3.83,-0.95 -0.95,-1.13 -1.06,-2.68 -0.28,-3.93 l 5.42,-8.72 c 0.54,-0.87 0.46,-1.98 -0.2,-2.76 l -6.61,-7.85 c -0.95,-1.13 -1.07,-2.68 -0.28,-3.94 0.78,-1.26 2.22,-1.84 3.65,-1.48 l 9.95,2.47 c 1,0.25 2.03,-0.17 2.57,-1.04 l 5.43,-8.71 c 0.78,-1.26 2.21,-1.84 3.65,-1.48 1.44,0.35 2.44,1.54 2.54,3.02 l 0.74,10.24 c 0.07,1.02 0.79,1.87 1.78,2.12 l 9.95,2.46 c 1.44,0.36 2.43,1.54 2.54,3.01 0.11,1.48 -0.71,2.8 -2.08,3.36 l -9.5,3.86 c -0.95,0.39 -1.54,1.33 -1.46,2.35 l 0.74,10.23 c 0.1,1.48 -0.71,2.79 -2.09,3.35 -0.42,0.17 -0.85,0.25 -1.28,0.25 z m -10.95,-10.9 c 0.97,0 1.91,0.42 2.56,1.2 l 6.61,7.85 c 0.81,0.97 1.92,0.98 2.69,0.67 0.77,-0.31 1.56,-1.09 1.47,-2.35 l -0.74,-10.23 c -0.1,-1.46 0.73,-2.8 2.08,-3.35 l 9.5,-3.86 c 1.17,-0.48 1.52,-1.53 1.46,-2.36 -0.06,-0.82 -0.56,-1.81 -1.78,-2.12 l -9.95,-2.46 c -1.42,-0.35 -2.44,-1.56 -2.54,-3.02 l -0.74,-10.24 c -0.09,-1.26 -0.98,-1.92 -1.78,-2.12 -0.8,-0.2 -1.9,-0.03 -2.56,1.04 l -5.43,8.71 c -0.77,1.24 -2.24,1.84 -3.66,1.49 l -9.95,-2.47 c -1.22,-0.3 -2.13,0.34 -2.57,1.04 -0.44,0.7 -0.62,1.8 0.2,2.76 l 6.61,7.85 c 0.94,1.12 1.05,2.7 0.28,3.94 l -5.42,8.72 c -0.67,1.07 -0.33,2.13 0.2,2.76 0.53,0.63 1.52,1.14 2.69,0.67 l 9.5,-3.86 c 0.41,-0.17 0.84,-0.25 1.27,-0.25 z"
       id="path56" />
  </g>
  <path
     d="m 779.91,338.88 v -0.02 c 0,0 -0.84,-0.32 -0.84,-0.32 l 0.84,0.34 z"
     id="path57" />
  <path
     d="m 537.84,320.84 1.08,14.02 c 0,0 12.57,-6.18 19.97,-22.04 0,0 -10.03,6.69 -21.05,8.02 z"
     id="path58" />
  <path
     d="m 547.16,507.82 c 0.07,0 0.14,-0.02 0.21,-0.05 9.93,-4.67 24.72,-4.14 24.87,-4.13 0.06,0 0.11,0 0.17,-0.02 l 50.68,-15.6 c 10.64,-2.69 10.96,-3.07 11.39,-13.83 0.06,-1.58 0.13,-3.38 0.25,-5.47 0.9,-15.7 -8.24,-70.81 -8.33,-71.36 -0.05,-0.27 -0.31,-0.46 -0.58,-0.41 -0.27,0.05 -0.46,0.3 -0.41,0.58 0.09,0.55 9.21,55.55 8.32,71.14 -0.12,2.09 -0.19,3.9 -0.25,5.48 q -0.41,10.32 -10.66,12.91 l -50.63,15.58 c -1.25,-0.04 -15.5,-0.36 -25.25,4.23 -0.25,0.12 -0.36,0.42 -0.24,0.67 0.08,0.18 0.26,0.29 0.45,0.29 z"
     id="path59" />
  <path
     d="m 552.15,579.55 c 0,0 0.09,0 0.13,-0.02 l 25.9,-7.13 c 0.17,-0.05 0.31,-0.19 0.35,-0.36 0.05,-0.22 5.42,-22.45 1.81,-36.87 -0.07,-0.27 -0.33,-0.43 -0.61,-0.36 -0.27,0.07 -0.43,0.34 -0.36,0.61 3.33,13.31 -1.13,33.48 -1.74,36.11 l -25.61,7.06 c -0.27,0.07 -0.42,0.35 -0.35,0.61 0.06,0.22 0.26,0.37 0.48,0.37 z"
     id="path60" />
  <path
     d="m 578.04,572.41 c 0.06,0 0.12,-0.01 0.18,-0.03 15.91,-6.12 61.05,-8.54 61.5,-8.57 15.71,-0.34 42.34,-5.53 42.6,-5.58 0.27,-0.05 0.45,-0.32 0.39,-0.59 -0.05,-0.27 -0.32,-0.45 -0.59,-0.39 -0.27,0.05 -26.8,5.22 -42.45,5.56 -0.47,0.02 -45.77,2.46 -61.83,8.63 -0.26,0.1 -0.39,0.39 -0.29,0.65 0.08,0.2 0.27,0.32 0.47,0.32 z"
     id="path61" />
  <path
     d="m 500.7,497.85 c 0.26,0 0.47,-0.2 0.5,-0.46 l 1.08,-11.99 -8.73,-83.76 c -0.03,-0.28 -0.28,-0.48 -0.55,-0.45 -0.27,0.03 -0.47,0.27 -0.45,0.55 l 8.73,83.66 -1.08,11.89 c -0.02,0.27 0.18,0.52 0.45,0.54 0.02,0 0.03,0 0.05,0 z"
     id="path62" />
  <g
     id="g64"
     transform="matrix(-1,0,0,1,865.76,0)">
    <path
       d="m 382.36,521.01 c -6.24,0.85 -23.6,-2.27 -25.85,-2.68 -0.16,-0.03 -0.31,0 -0.44,0.1 l -2.06,1.5 c -0.41,0.3 -0.28,0.94 0.22,1.05 l 11.45,2.46 6.64,1.32 c 0.62,0.12 1.18,0.48 1.56,0.99 v 0.02 c 1.38,1.86 4.39,6.38 2.72,8.28 -2.12,2.44 -7.28,3.35 -7.28,3.35 0,0 1.22,7.27 -1.52,8.49 -2.74,1.22 -4.85,1.2 -4.85,1.2 0,0 2.43,3.35 -1.2,5.46 -3.63,2.11 -14.57,1.82 -14.57,1.82 -5.16,1.44 -10.15,3.3 -15.28,4.83 -3.28,0.96 -6.63,1.67 -10.01,2.13 -3.18,0.45 -6.39,0.73 -9.59,0.92 -0.8,0.05 -1.61,0.08 -2.41,0.11 -1.38,-23.31 -0.07,-36.7 1.89,-44.39 l 4.02,-0.84 c 3.54,-0.73 6.79,-2.46 9.38,-4.97 0.36,-0.36 0.71,-0.73 1.05,-1.11 4.19,-4.81 9.13,-9.74 9.13,-9.74 0,0 11.53,-13.65 15.16,-13.65 3.17,0 12.37,7.51 14.64,9.41 0.16,0.14 0.08,0.4 -0.13,0.41 -0.88,0.07 -2.27,0.43 -3.39,1.01 -2.16,1.14 -4.16,2.57 -5.95,4.23 -0.39,0.2 -0.8,0.33 -1.23,0.39 -1.48,0 -6.6,2.29 -6.8,2.38 0.17,-0.02 3.03,-0.33 5.94,-0.65 2.46,-0.27 4.86,-0.52 5.4,-0.52 1.22,0 21.84,4.24 24.58,6.07 2.74,1.83 5.45,9.7 -1.21,10.6 v 0 z"
       fill="#ffc0c0"
       id="path63" />
    <path
       d="m 309.41,562.88 -0.03,-0.49 c -1.18,-19.97 -0.54,-34.96 1.91,-44.54 l 0.08,-0.3 4.33,-0.9 c 3.45,-0.71 6.61,-2.39 9.13,-4.84 0.35,-0.35 0.69,-0.71 1.02,-1.08 4.15,-4.77 9.11,-9.72 9.16,-9.77 1.17,-1.38 11.76,-13.8 15.51,-13.8 3.33,0 12.29,7.29 14.96,9.53 0.23,0.19 0.32,0.5 0.23,0.79 -0.09,0.28 -0.34,0.48 -0.64,0.5 -0.77,0.06 -2.1,0.38 -3.19,0.96 -2.12,1.12 -4.08,2.52 -5.84,4.15 l -0.11,0.08 c -0.44,0.23 -0.91,0.37 -1.4,0.44 -0.62,0 -2.01,0.45 -3.48,1.02 0.78,-0.09 1.63,-0.18 2.49,-0.27 3.14,-0.35 4.98,-0.52 5.45,-0.52 1.07,0 22,4.25 24.86,6.16 1.94,1.3 3.69,5.03 3.02,7.91 -0.33,1.41 -1.36,3.19 -4.45,3.6 v 0 c -6.35,0.86 -24.01,-2.32 -26,-2.68 l -2.12,1.52 -0.07,0.65 0.11,-0.49 11.45,2.46 6.63,1.32 c 0.75,0.15 1.41,0.57 1.86,1.18 1.8,2.44 4.53,6.83 2.7,8.92 -1.84,2.12 -5.72,3.12 -7.09,3.42 0.25,1.79 0.78,7.36 -1.88,8.55 -1.8,0.8 -3.34,1.09 -4.23,1.19 0.3,0.65 0.62,1.66 0.4,2.74 -0.23,1.1 -0.96,2.01 -2.17,2.71 -3.6,2.09 -13.69,1.92 -14.75,1.89 -2.82,0.79 -5.64,1.72 -8.37,2.62 -2.23,0.74 -4.54,1.5 -6.83,2.18 -3.3,0.96 -6.69,1.68 -10.09,2.15 -2.9,0.41 -6.05,0.72 -9.63,0.93 -0.81,0.05 -1.62,0.08 -2.42,0.11 h -0.49 z m 2.77,-44.47 c -2.34,9.42 -2.95,24.03 -1.83,43.45 0.64,-0.02 1.27,-0.05 1.91,-0.09 3.56,-0.21 6.68,-0.51 9.55,-0.92 3.35,-0.46 6.7,-1.17 9.94,-2.12 2.28,-0.68 4.58,-1.44 6.8,-2.17 2.76,-0.91 5.62,-1.86 8.49,-2.66 l 0.07,-0.02 h 0.08 c 0.1,0 10.83,0.26 14.3,-1.75 0.95,-0.55 1.52,-1.24 1.69,-2.05 0.29,-1.37 -0.64,-2.68 -0.65,-2.69 l -0.57,-0.8 h 0.98 c 0,0 2.07,0 4.65,-1.16 1.96,-0.87 1.55,-6.04 1.23,-7.95 l -0.08,-0.49 0.49,-0.09 c 0,0 5.01,-0.91 6.99,-3.18 1.17,-1.33 -0.65,-4.83 -2.74,-7.66 -0.32,-0.43 -0.76,-0.71 -1.26,-0.81 l -6.64,-1.32 -11.46,-2.46 c -0.43,-0.09 -0.75,-0.41 -0.84,-0.84 -0.09,-0.43 0.07,-0.85 0.42,-1.1 l 2.06,-1.5 c 0.24,-0.18 0.54,-0.25 0.83,-0.19 1.98,0.36 19.49,3.52 25.69,2.68 v 0 c 2.02,-0.27 3.23,-1.23 3.61,-2.84 0.55,-2.39 -0.97,-5.76 -2.6,-6.85 -2.65,-1.77 -23.29,-5.99 -24.3,-5.99 -0.3,0 -1.48,0.09 -5.34,0.51 -2.91,0.32 -5.77,0.63 -5.94,0.65 l -3.11,0.33 2.85,-1.28 c 0.55,-0.25 5.43,-2.43 7,-2.43 0.29,-0.04 0.63,-0.15 0.95,-0.31 1.81,-1.67 3.83,-3.1 6,-4.26 0.97,-0.51 2.09,-0.84 2.96,-0.99 -5.06,-4.2 -11.54,-8.9 -13.85,-8.9 -2.49,0 -10.2,8.06 -14.78,13.47 -0.08,0.08 -5,5.01 -9.14,9.75 -0.34,0.39 -0.7,0.77 -1.07,1.14 -2.67,2.59 -5.99,4.35 -9.63,5.11 l -3.72,0.78 z"
       id="path64" />
  </g>
  <path
     d="m 511.53,521.48 c 0,0 0.03,0 0.05,0 l 11.79,-1.07 c 0.28,-0.03 0.48,-0.27 0.45,-0.54 -0.02,-0.27 -0.29,-0.47 -0.54,-0.45 l -11.79,1.07 c -0.28,0.02 -0.48,0.27 -0.45,0.54 0.02,0.26 0.24,0.45 0.5,0.45 z"
     id="path65" />
  <path
     d="m 496.44,537.9 c 0,0 0.06,0 0.09,0 l 20.9,-3.58 c 0.27,-0.05 0.45,-0.31 0.41,-0.58 -0.05,-0.27 -0.3,-0.46 -0.58,-0.41 l -20.9,3.58 c -0.27,0.05 -0.45,0.31 -0.41,0.58 0.04,0.24 0.25,0.42 0.49,0.42 z"
     id="path66" />
  <path
     d="m 503.13,547.27 c 0,0 0.09,0 0.14,-0.02 l 14.39,-4.21 9.22,3.08 c 0.25,0.09 0.54,-0.05 0.63,-0.32 0.09,-0.26 -0.05,-0.55 -0.32,-0.63 l -9.37,-3.13 c -0.09,-0.03 -0.2,-0.03 -0.3,0 l -14.54,4.25 c -0.26,0.08 -0.42,0.36 -0.34,0.62 0.06,0.22 0.26,0.36 0.48,0.36 z"
     id="path67" />
  <g
     id="g68"
     transform="matrix(-1,0,0,1,865.76,0)">
    <polygon
       points="275.65,213.37 283.76,214.77 285.79,205.5 277.92,203.33 "
       fill="#b3a7b9ff"
       id="polygon67" />
    <path
       d="m 284.14,215.34 -9.09,-1.56 2.49,-11.07 8.84,2.43 z m -7.89,-2.37 7.12,1.22 1.83,-8.34 -6.91,-1.9 -2.03,9.02 z"
       id="path68" />
  </g>
  <g
     id="g70"
     transform="matrix(-1,0,0,1,865.76,0)">
    <path
       d="m 403.63,212.41 -1.44,15.43 c -1.99,-0.37 -3.98,-0.72 -5.98,-1.01 0.07,-0.45 0.14,-0.89 0.2,-1.31 1.24,-8.4 1.7,-16.81 -0.89,-25.04 -3.64,-11.58 -11.61,-22.16 -23.06,-26.84 -34.4,-14.08 -61.35,-4.21 -71.33,1.5 -6.12,3.5 -11.72,17.74 -15.27,30.53 -2.76,-0.5 -5.53,-0.97 -8.3,-1.44 3.37,-12.49 9.78,-30.85 19.4,-36.35 11.56,-6.6 41.07,-17.38 78.69,-1.98 18.32,7.51 29.83,26.64 27.98,46.52 v 0 z"
       fill="#f7ce21"
       id="path69"
       style="fill:#48373e" />
    <path
       d="m 402.64,228.43 -0.54,-0.1 c -1.77,-0.33 -3.86,-0.7 -5.96,-1 l -0.5,-0.07 0.27,-1.81 c 1.1,-7.41 1.85,-16.16 -0.87,-24.82 -3.94,-12.55 -12.24,-22.22 -22.78,-26.53 -37.89,-15.51 -65.71,-1.5 -70.9,1.47 -4.95,2.83 -10.57,14.13 -15.03,30.22 l -0.12,0.44 -0.45,-0.08 c -2.76,-0.5 -5.53,-0.97 -8.29,-1.44 l -0.54,-0.09 0.14,-0.53 c 3.7,-13.72 10.11,-31.21 19.64,-36.66 8.23,-4.7 38.24,-18.74 79.12,-2.01 18.53,7.59 30.16,26.93 28.29,47.03 l -1.49,15.98 z m -5.85,-2.02 c 1.73,0.26 3.45,0.56 4.96,0.84 l 1.39,-14.89 c 1.83,-19.66 -9.54,-38.58 -27.67,-46.01 -40.47,-16.56 -70.12,-2.7 -78.25,1.95 -9.56,5.47 -15.98,24.36 -19.02,35.52 2.44,0.42 4.88,0.84 7.31,1.27 2.27,-8.09 8.05,-26.2 15.38,-30.39 5.26,-3.01 33.45,-17.22 71.77,-1.53 10.81,4.42 19.32,14.32 23.35,27.15 2.78,8.85 2.02,17.74 0.9,25.26 l -0.12,0.81 z"
       id="path70" />
  </g>
  <g
     id="g72"
     transform="matrix(-1,0,0,1,865.76,0)">
    <path
       d="m 385.1,494.28 v 1.07 c 0,0.43 -0.35,0.79 -0.79,0.79 h -0.77 v 1.81 l -7.78,-0.14 v -1.66 H 375 c -0.43,0 -0.79,-0.35 -0.79,-0.79 v -1.07 c 0,-1.21 0.98,-2.18 2.18,-2.18 h 6.52 c 1.2,0 2.18,0.97 2.18,2.18 z m 37.46,0 v 1.07 c 0,0.43 -0.35,0.79 -0.79,0.79 H 421 v 2.47 l -7.78,-0.14 v -2.33 h -0.77 c -0.43,0 -0.79,-0.35 -0.79,-0.79 v -1.07 c 0,-1.21 0.98,-2.18 2.18,-2.18 h 6.53 c 1.21,0 2.18,0.98 2.18,2.18 v 0 z"
       fill="#b3a7b9ff"
       id="path71" />
    <path
       d="m 421.5,499.12 -8.78,-0.16 v -2.32 h -0.27 c -0.71,0 -1.29,-0.58 -1.29,-1.29 v -1.07 c 0,-1.48 1.21,-2.68 2.68,-2.68 h 6.53 c 1.48,0 2.68,1.2 2.68,2.68 v 1.07 c 0,0.71 -0.58,1.29 -1.29,1.29 h -0.27 v 2.48 z m -7.78,-1.14 6.78,0.12 v -2.46 h 1.27 c 0.16,0 0.29,-0.13 0.29,-0.29 v -1.07 c 0,-0.93 -0.75,-1.68 -1.68,-1.68 h -6.53 c -0.93,0 -1.68,0.75 -1.68,1.68 v 1.07 c 0,0.16 0.13,0.29 0.29,0.29 h 1.27 v 2.34 z m -29.68,0.48 -8.78,-0.16 v -1.65 H 375 c -0.71,0 -1.29,-0.58 -1.29,-1.29 v -1.07 c 0,-1.48 1.21,-2.68 2.68,-2.68 h 6.52 c 1.47,0 2.68,1.2 2.68,2.67 v 1.07 c 0,0.71 -0.58,1.29 -1.29,1.29 h -0.27 v 1.82 z m -7.78,-1.14 6.78,0.12 v -1.8 h 1.27 c 0.16,0 0.29,-0.13 0.29,-0.29 v -1.07 c 0,-0.92 -0.76,-1.68 -1.68,-1.68 h -6.52 c -0.93,0 -1.68,0.75 -1.68,1.68 v 1.07 c 0,0.16 0.13,0.29 0.29,0.29 h 1.26 v 1.67 z"
       id="path72" />
  </g>
  <g
     id="g74"
     style="fill:#b5a7bb;fill-opacity:1"
     transform="matrix(-1,0,0,1,865.76,0)">
    <path
       d="m 748.58,306.62 -13.34,176.09 -2,26.47 c -0.33,4.45 -3.83,8 -8.28,8.4 l -299.08,27.08 c -5.02,0.45 -9.46,-3.25 -9.91,-8.27 -0.04,-0.46 -0.05,-0.93 -0.02,-1.4 l 15.26,-241.86 c 0.31,-4.95 4.52,-8.75 9.48,-8.54 l 8.17,0.33 290.99,11.89 c 5.04,0.21 8.95,4.45 8.75,9.49 0,0.11 -0.01,0.21 -0.02,0.32 z"
       fill="#b3a7b9ff"
       id="path73"
       style="fill:#b5a7bb;fill-opacity:1" />
    <path
       d="m 425.05,545.2 c -4.92,0 -9.13,-3.77 -9.58,-8.76 -0.04,-0.49 -0.05,-0.99 -0.02,-1.48 L 430.71,293.1 c 0.33,-5.18 4.82,-9.22 10,-9.01 l 299.16,12.22 c 5.3,0.22 9.44,4.71 9.23,10.01 l -0.02,0.33 -15.34,202.56 c -0.35,4.71 -4.03,8.44 -8.73,8.86 l -299.08,27.08 c -0.29,0.03 -0.59,0.04 -0.88,0.04 z m 15.27,-260.11 c -4.5,0 -8.33,3.56 -8.61,8.08 l -15.26,241.86 c -0.03,0.44 -0.02,0.88 0.02,1.32 0.43,4.74 4.62,8.25 9.37,7.81 l 299.08,-27.08 c 4.21,-0.38 7.5,-3.72 7.82,-7.94 L 748.1,306.28 c 0.19,-4.75 -3.52,-8.77 -8.27,-8.97 L 440.67,285.09 c -0.12,0 -0.23,0 -0.35,0 z"
       id="path74"
       style="fill:#000000;fill-opacity:1" />
  </g>
  <g
     id="g76"
     transform="matrix(-1,0,0,1,865.76,0)">
    <path
       d="m 446.21,284.82 -5.51,-0.23 c -4.96,-0.2 -9.17,3.59 -9.48,8.54 l -15.27,241.86 c -0.32,5.03 3.5,9.37 8.53,9.68 0.47,0.03 0.93,0.02 1.4,-0.02 l 4.3,-0.39 16.04,-259.45 z m 132.84,276.6 c 0.82,17.31 -13.34,16.01 -13.34,16.01 h -52.77 v 13.91 h 132.23 c 20.68,0 16.87,-33.09 16.87,-33.09 L 636.96,409.53 h -75.69 z"
       id="path75" />
    <path
       d="M 645.17,591.84 H 512.44 v -14.91 h 53.27 c 0.1,0 5.35,0.43 9.07,-3.14 2.76,-2.65 4.03,-6.79 3.77,-12.33 L 560.71,409.03 h 76.67 l 25.15,149.13 c 0.09,0.82 2.15,19.62 -6.04,28.81 -2.87,3.22 -6.68,4.86 -11.32,4.86 z m -131.73,-1 h 131.73 c 4.34,0 7.9,-1.52 10.57,-4.52 7.89,-8.85 5.82,-27.82 5.8,-28.01 l -25,-148.27 h -74.7 l 17.72,151.36 c 0.28,5.85 -1.1,10.27 -4.08,13.12 -4.06,3.88 -9.57,3.43 -9.8,3.41 h -52.23 v 12.91 z M 425.06,545.2 c -0.2,0 -0.41,0 -0.61,-0.02 -2.57,-0.16 -4.92,-1.31 -6.62,-3.24 -1.7,-1.93 -2.55,-4.4 -2.38,-6.97 l 15.27,-241.86 c 0.33,-5.18 4.82,-9.22 10,-9.01 l 6.02,0.25 -0.03,0.51 -16.06,259.88 -4.72,0.43 c -0.29,0.03 -0.58,0.04 -0.87,0.04 z m 15.27,-260.11 c -4.5,0 -8.33,3.56 -8.61,8.08 l -15.27,241.86 c -0.15,2.3 0.61,4.52 2.14,6.25 1.53,1.73 3.63,2.76 5.93,2.91 0.44,0.03 0.88,0.02 1.32,-0.02 l 3.87,-0.35 15.98,-258.52 -5,-0.21 c -0.12,0 -0.23,0 -0.35,0 z"
       id="path76" />
  </g>
  <g
     id="g78"
     transform="matrix(-1,0,0,1,865.76,0)">
    <path
       d="m 660.08,579.57 c 3.32,-9.51 1.96,-21.33 1.96,-21.33 L 636.96,409.52 h -69.95 l 25.08,148.72 c 0,0 3.25,28.2 -12.53,32.53 h 69.96 c 5.56,-1.53 8.76,-6.02 10.57,-11.2 z m -45.66,-96.91 c -8.86,0.82 -16.9,-7.65 -17.94,-18.92 -1.04,-11.27 5.3,-21.08 14.16,-21.9 8.86,-0.82 16.89,7.66 17.94,18.92 1.04,11.27 -5.29,21.07 -14.16,21.89 z"
       fill="#b3a7b9ff"
       id="path77" />
    <path
       d="m 649.58,591.27 h -73.74 l 3.58,-0.98 c 15.19,-4.17 12.2,-31.72 12.16,-31.99 L 566.41,409.03 h 70.97 l 25.15,149.13 c 0.02,0.15 1.34,12.07 -1.98,21.58 v 0 c -2.18,6.26 -5.85,10.13 -10.91,11.52 l -0.06,0.02 z m -67.31,-1 h 67.17 c 4.69,-1.31 8.11,-4.97 10.17,-10.87 v 0 c 3.24,-9.29 1.94,-20.99 1.93,-21.11 l -25,-148.27 H 567.6 l 24.98,148.13 c 0.13,1.13 2.78,25.62 -10.3,32.12 z m 30.97,-107.06 c -8.63,0 -16.24,-8.42 -17.26,-19.43 -1.07,-11.53 5.49,-21.6 14.61,-22.44 9.12,-0.84 17.41,7.85 18.48,19.38 0.52,5.56 -0.71,10.95 -3.44,15.18 -2.76,4.27 -6.73,6.84 -11.17,7.26 v 0 c -0.41,0.04 -0.82,0.06 -1.23,0.06 z m -1.42,-40.93 c -0.38,0 -0.76,0.02 -1.14,0.05 -8.57,0.79 -14.72,10.37 -13.71,21.35 1.02,10.98 8.82,19.27 17.4,18.47 v 0 c 4.13,-0.38 7.83,-2.8 10.42,-6.8 2.61,-4.04 3.78,-9.21 3.28,-14.55 -0.97,-10.49 -8.14,-18.52 -16.26,-18.52 z"
       id="path78" />
  </g>
  <g
     id="g79"
     transform="matrix(-1,0,0,1,865.76,0)">
    <rect
       x="30.059999"
       y="589.21002"
       width="805.64001"
       height="10.85"
       fill="#ffffff"
       id="rect78" />
    <path
       d="M 836.2,600.56 H 29.56 V 588.71 H 836.2 Z m -805.64,-1 H 835.2 v -9.85 H 30.56 Z"
       id="path79" />
  </g>
  <g
     id="g83"
     transform="matrix(-1,0,0,1,865.76,0)">
    <path
       d="m 325.76,233.99 c -0.15,0 -0.3,-0.07 -0.39,-0.19 -5.61,-7.17 -14.45,-3.8 -14.82,-3.66 -0.26,0.1 -0.55,-0.02 -0.65,-0.28 -0.1,-0.26 0.02,-0.55 0.28,-0.65 0.1,-0.04 9.91,-3.8 15.98,3.97 0.17,0.22 0.13,0.53 -0.09,0.7 -0.09,0.07 -0.2,0.11 -0.31,0.11 z"
       id="path80" />
    <path
       d="m 378.58,245.24 c -0.15,0 -0.3,-0.07 -0.39,-0.19 -5.61,-7.18 -14.73,-3.69 -14.82,-3.66 -0.26,0.1 -0.55,-0.02 -0.65,-0.28 -0.1,-0.26 0.02,-0.55 0.28,-0.65 0.1,-0.04 9.91,-3.8 15.98,3.97 0.17,0.22 0.13,0.53 -0.09,0.7 -0.09,0.07 -0.2,0.11 -0.31,0.11 z"
       id="path81" />
    <ellipse
       cx="316.89001"
       cy="245.31"
       rx="6.5300002"
       ry="3.9300001"
       transform="rotate(-76.08,316.91215,245.30764)"
       id="ellipse81" />
    <ellipse
       cx="363.76999"
       cy="255.72"
       rx="6.5300002"
       ry="3.9300001"
       transform="rotate(-76.08,363.80024,255.72185)"
       id="ellipse82" />
    <path
       d="m 341.39,279.47 c -3.33,0 -7.12,-1.2 -9.93,-5.56 -0.15,-0.23 -0.08,-0.54 0.15,-0.69 0.23,-0.15 0.54,-0.08 0.69,0.15 3.33,5.18 8.21,5.5 11.71,4.85 0.63,-0.12 1.14,-0.52 1.4,-1.12 0.26,-0.6 0.2,-1.29 -0.16,-1.84 -5.56,-8.57 -4.48,-22.73 -4.43,-23.33 0.02,-0.28 0.27,-0.48 0.54,-0.46 0.28,0.02 0.48,0.26 0.46,0.54 -0.01,0.14 -1.1,14.42 4.27,22.7 0.54,0.83 0.62,1.87 0.23,2.78 -0.38,0.89 -1.18,1.53 -2.14,1.71 -0.87,0.16 -1.82,0.27 -2.81,0.27 z"
       id="path82" />
    <path
       d="m 335.01,299.69 c -13.53,0 -18.4,-12.4 -18.45,-12.54 -0.1,-0.26 0.03,-0.55 0.29,-0.64 0.25,-0.1 0.54,0.03 0.64,0.29 0.24,0.64 6.19,15.72 23.99,11 0.27,-0.07 0.54,0.09 0.61,0.36 0.07,0.27 -0.09,0.54 -0.36,0.61 -2.45,0.65 -4.69,0.93 -6.73,0.93 z"
       id="path83" />
  </g>
  <g
     id="g85"
     transform="matrix(-1,0,0,1,865.76,0)">
    <path
       d="m 325.3,297.91 c -36.42,-4.87 -41.97,-50.31 -42.01,-50.77 l 5.96,-0.84 c 0.19,1.66 5.04,40.7 36.77,44.95 l -0.72,6.67 z"
       fill="#b3a7b9ff"
       id="path84" />
    <path
       d="m 325.74,298.47 -0.51,-0.07 c -36.86,-4.93 -42.4,-50.77 -42.44,-51.23 l -0.04,-0.47 6.93,-0.98 0.06,0.51 c 0.19,1.64 4.96,40.31 36.34,44.51 l 0.48,0.06 -0.83,7.66 z m -41.89,-50.91 c 0.66,4.81 7.24,44.87 41.01,49.78 l 0.62,-5.68 c -30.16,-4.4 -35.99,-39.89 -36.66,-44.81 l -4.97,0.7 z"
       id="path85" />
  </g>
  <g
     id="g87"
     transform="matrix(-1,0,0,1,865.76,0)">
    <path
       d="m 325.67,288.62 c -1.58,-0.06 -3.05,0.82 -3.76,2.23 -0.97,1.94 -1.86,4.83 -0.54,7.46 2.25,4.5 19.95,5.85 21.15,4.05 1.2,-1.8 1.81,-8.85 -0.45,-11.25 -1.72,-1.83 -11.76,-2.35 -16.4,-2.49 z m -62.89,-31.8 15.91,2.77 c 6.25,0.68 12.73,-8.07 14.97,-19.84 3.49,-18.29 -7.26,-23.83 -7.26,-23.83 0,0 -7.69,-6.13 -15.89,-2.81 l -7.73,43.71"
       fill="#f6e3ffff"
       id="path86" />
    <path
       d="m 338.25,303.64 c -0.87,0 -1.72,-0.04 -2.42,-0.08 -4.76,-0.3 -13.25,-1.69 -14.91,-5.02 -1.41,-2.81 -0.48,-5.85 0.54,-7.91 0.79,-1.59 2.44,-2.57 4.22,-2.51 6.7,0.21 15.04,0.83 16.74,2.65 2.4,2.55 1.86,9.84 0.5,11.87 -0.53,0.79 -2.66,1 -4.68,1 z m -12.73,-14.52 c -1.33,0 -2.57,0.76 -3.17,1.96 -0.92,1.85 -1.76,4.57 -0.54,7.01 1.14,2.29 7.16,3.83 12.62,4.35 4.87,0.46 7.39,0 7.66,-0.36 1.16,-1.73 1.64,-8.46 -0.4,-10.63 -1.12,-1.19 -7.11,-2.06 -16.05,-2.33 v 0 c 0,0 -0.08,0 -0.12,0 z m -46.15,-28.98 c -0.25,0 -0.5,-0.01 -0.74,-0.04 l -16.44,-2.87 0.09,-0.49 7.78,-43.98 0.26,-0.1 c 8.38,-3.39 16.07,2.63 16.39,2.88 0.03,0 10.95,5.87 7.44,24.31 -2.25,11.78 -8.5,20.28 -14.77,20.28 z m -16.02,-3.72 15.42,2.69 c 5.88,0.65 12.2,-7.9 14.39,-19.44 3.38,-17.72 -6.89,-23.24 -7,-23.29 -0.16,-0.11 -7.48,-5.83 -15.22,-2.89 l -7.59,42.94 z"
       id="path87" />
  </g>
  <g
     id="g89"
     transform="matrix(-1,0,0,1,865.76,0)">
    <path
       d="m 277.76,237.33 c -2.13,12.07 -9.02,20.94 -15.39,19.81 -6.37,-1.13 -9.8,-11.82 -7.66,-23.89 2.14,-12.07 9.03,-20.94 15.39,-19.81 6.36,1.13 9.8,11.82 7.66,23.89 z"
       fill="#f7ce21"
       id="path88"
       style="fill:#6c535d" />
    <path
       d="m 263.45,257.74 c -0.39,0 -0.78,-0.03 -1.17,-0.1 -3.27,-0.58 -5.9,-3.48 -7.41,-8.18 -1.47,-4.59 -1.71,-10.37 -0.66,-16.29 1.05,-5.91 3.25,-11.27 6.21,-15.07 3.03,-3.9 6.5,-5.72 9.76,-5.14 3.27,0.58 5.9,3.48 7.41,8.18 1.47,4.59 1.7,10.37 0.66,16.29 v 0 c -2.05,11.6 -8.52,20.32 -14.8,20.32 z M 269,213.85 c -2.59,0 -5.32,1.69 -7.78,4.86 -2.86,3.68 -4.99,8.88 -6.01,14.63 -1.02,5.76 -0.8,11.37 0.63,15.81 1.39,4.33 3.74,6.99 6.63,7.5 6.07,1.07 12.73,-7.63 14.81,-19.4 v 0 c 1.02,-5.76 0.8,-11.37 -0.62,-15.81 -1.39,-4.33 -3.74,-6.99 -6.63,-7.5 -0.34,-0.06 -0.68,-0.09 -1.02,-0.09 z"
       id="path89" />
  </g>
  <g
     id="g90"
     transform="matrix(-1,0,0,1,865.76,0)">
    <ellipse
       cx="266.22"
       cy="235.27"
       rx="9.6599998"
       ry="5.0900002"
       transform="rotate(-79.97,266.21666,235.26701)"
       fill="#b3a7b9ff"
       id="ellipse89" />
    <path
       d="m 265.02,245.32 c -0.19,0 -0.38,-0.02 -0.57,-0.05 -1.53,-0.27 -2.75,-1.6 -3.44,-3.75 -0.65,-2.04 -0.76,-4.6 -0.3,-7.22 0.46,-2.62 1.44,-4.99 2.76,-6.68 1.38,-1.78 3,-2.61 4.52,-2.34 1.53,0.27 2.75,1.6 3.44,3.75 0.65,2.04 0.76,4.6 0.3,7.22 -0.46,2.62 -1.44,4.99 -2.76,6.68 -1.21,1.56 -2.6,2.39 -3.95,2.39 z m 2.4,-19.1 c -1.04,0 -2.15,0.7 -3.16,2.01 -1.22,1.56 -2.13,3.78 -2.56,6.24 -0.43,2.46 -0.34,4.86 0.26,6.74 0.57,1.78 1.52,2.87 2.67,3.07 1.15,0.2 2.41,-0.5 3.56,-1.97 1.22,-1.56 2.13,-3.78 2.56,-6.24 0.43,-2.46 0.34,-4.86 -0.26,-6.74 -0.57,-1.78 -1.52,-2.87 -2.67,-3.07 -0.13,-0.02 -0.26,-0.03 -0.39,-0.03 z"
       id="path90" />
  </g>
</svg>
